<svg xmlns="http://www.w3.org/2000/svg" viewBox="0 0 386.66 387.08"><defs><style>.cls-1{fill:#dfedfe;}.cls-2{fill:#439aff;}.cls-3{fill:#0166d0;}.cls-4{opacity:0.18;}.cls-5{fill:#1e3e65;}.cls-6{fill:#fff;}</style></defs><g id="Capa_2" data-name="Capa 2"><g id="Layer_1" data-name="Layer 1"><rect class="cls-1" width="386.66" height="387.08"/><path class="cls-2" d="M209,81.14a5.12,5.12,0,0,0-4-.18l0,0a5.06,5.06,0,0,0-2.8,2.58l-14.8,31.07a1.18,1.18,0,0,1-.77.62,1.14,1.14,0,0,1-1-.22l-.07-.06a1.14,1.14,0,0,1-.3-1.3L204.42,68.9A5.11,5.11,0,0,0,198,62.1l0,0a5.1,5.1,0,0,0-2.81,2.59l-20.48,43.37a1.13,1.13,0,0,1-1.48.55l-.22-.1a1.13,1.13,0,0,1-.58-1.47l19.58-45.79a5.11,5.11,0,0,0-6.47-6.79h0a5.1,5.1,0,0,0-2.81,2.59l-21.28,45.06a1.13,1.13,0,0,1-2.06-.92l16.5-38.65a5.11,5.11,0,0,0-6.48-6.79h0a5.1,5.1,0,0,0-2.81,2.59L142,109.93a1.13,1.13,0,0,1-2.15-.5l.37-22.12a6,6,0,0,0-5.56-6.1,6.23,6.23,0,0,0-2.6.37,6.06,6.06,0,0,0-3.87,5.17L124,140.52c0,.14,0,.31,0,.46,0,1.25,1.14,10.49,2.4,14a1.15,1.15,0,0,1-.08.94l0,.07L103.9,201.12a1.48,1.48,0,0,0,.81,2c10.92,4,36.75,13,45,15.76a1.47,1.47,0,0,0,1.87-1l13.12-42.67a1.09,1.09,0,0,1,.64-.67c4.5-1.83,11-12,19-25,.93-1.52,2.93-4.8,3-5l2.64-6a20.52,20.52,0,0,0,.92-2.42.46.46,0,0,0,0-.09l20.51-48.38A5.06,5.06,0,0,0,209,81.14Z"/><path class="cls-2" d="M16.25,81.14a5.12,5.12,0,0,1,4-.18l0,0a5.06,5.06,0,0,1,2.8,2.58l14.8,31.07a1.18,1.18,0,0,0,.77.62,1.14,1.14,0,0,0,1-.22l.07-.06a1.14,1.14,0,0,0,.3-1.3L20.82,68.9a5.11,5.11,0,0,1,6.47-6.8l0,0a5.1,5.1,0,0,1,2.81,2.59l20.48,43.37a1.13,1.13,0,0,0,1.48.55l.22-.1a1.13,1.13,0,0,0,.58-1.47L33.32,61.27a5.11,5.11,0,0,1,6.47-6.79h0a5.1,5.1,0,0,1,2.81,2.59l21.28,45.06a1.13,1.13,0,0,0,2.06-.92L49.48,62.57A5.11,5.11,0,0,1,56,55.78h0a5.1,5.1,0,0,1,2.81,2.59L83.2,109.93a1.13,1.13,0,0,0,2.15-.5L85,87.31a6,6,0,0,1,5.56-6.1,6.23,6.23,0,0,1,2.6.37A6.06,6.06,0,0,1,97,86.75l4.2,53.77c0,.14,0,.31,0,.46,0,1.25-1.14,10.49-2.4,14a1.15,1.15,0,0,0,.08.94l0,.07,22.39,45.16a1.48,1.48,0,0,1-.81,2c-10.92,4-36.75,13-45,15.76a1.47,1.47,0,0,1-1.87-1L60.56,175.28a1.09,1.09,0,0,0-.64-.67c-4.5-1.83-11-12-19-25-.93-1.52-2.93-4.8-3-5l-2.64-6a20.52,20.52,0,0,1-.92-2.42l0-.09L13.76,87.74A5.08,5.08,0,0,1,16.25,81.14Z"/><path class="cls-3" d="M57,302.3a167.87,167.87,0,0,1-33.27-25.75q-4.3-4.31-8.29-8.9a2.28,2.28,0,0,0-3.19,0,2.3,2.3,0,0,0,0,3.19,172.13,172.13,0,0,0,32.23,28.81q5,3.45,10.25,6.54c2.5,1.48,4.77-2.41,2.27-3.89Z"/><path class="cls-3" d="M55.81,307a2.71,2.71,0,0,1-1.36-.39c-3.54-2.09-7-4.3-10.28-6.56a173,173,0,0,1-32.31-28.88,2.73,2.73,0,0,1,0-3.79,2.9,2.9,0,0,1,2.07-.78,2.45,2.45,0,0,1,1.77.8c2.68,3.09,5.46,6.08,8.27,8.88a166.87,166.87,0,0,0,33.19,25.68h0a2.48,2.48,0,0,1,1.3,2.22,3,3,0,0,1-1.47,2.5A2.51,2.51,0,0,1,55.81,307Zm-42-39.53a1.94,1.94,0,0,0-1.34.52,1.88,1.88,0,0,0,0,2.59,171.91,171.91,0,0,0,32.14,28.74c3.26,2.25,6.7,4.45,10.22,6.53a1.57,1.57,0,0,0,1.67.06,2.07,2.07,0,0,0,1-1.74,1.59,1.59,0,0,0-.87-1.45h0a168,168,0,0,1-33.36-25.82c-2.82-2.81-5.61-5.82-8.31-8.92a1.55,1.55,0,0,0-1.13-.5Z"/><path class="cls-3" d="M51.88,343.5a77.16,77.16,0,0,1-34.05,10.83,2.32,2.32,0,0,0-2.26,2.26,2.28,2.28,0,0,0,2.26,2.26A82.2,82.2,0,0,0,54.16,347.4c2.49-1.5.22-5.4-2.28-3.9Z"/><path class="cls-3" d="M17.71,359.29a2.41,2.41,0,0,1-1.65-.68,2.83,2.83,0,0,1-.91-2,2.74,2.74,0,0,1,2.67-2.7,77,77,0,0,0,33.85-10.77h0a2.55,2.55,0,0,1,3.6.95,2.61,2.61,0,0,1-.86,3.71,83,83,0,0,1-36.52,11.51Zm34.4-15.41a77.91,77.91,0,0,1-34.24,10.9A1.87,1.87,0,0,0,16,356.59a2,2,0,0,0,.63,1.37,1.48,1.48,0,0,0,1.15.44A82.11,82.11,0,0,0,53.94,347a1.73,1.73,0,0,0,.56-2.49,1.66,1.66,0,0,0-2.39-.64Z"/><path class="cls-3" d="M143,302.3a167.87,167.87,0,0,0,33.27-25.75q4.31-4.31,8.29-8.9a2.28,2.28,0,0,1,3.19,0,2.3,2.3,0,0,1,0,3.19,172.13,172.13,0,0,1-32.23,28.81q-5,3.45-10.25,6.54c-2.5,1.48-4.77-2.41-2.27-3.89Z"/><path class="cls-3" d="M144.14,307a2.67,2.67,0,0,1-2.26-1.37,2.58,2.58,0,0,1,.89-3.67h0A167.91,167.91,0,0,0,176,276.25c2.8-2.8,5.58-5.79,8.27-8.88a2.41,2.41,0,0,1,1.77-.8,2.85,2.85,0,0,1,2.07.78,2.72,2.72,0,0,1,0,3.79A172.65,172.65,0,0,1,155.78,300c-3.28,2.27-6.74,4.48-10.28,6.56A2.72,2.72,0,0,1,144.14,307Zm-.93-4.29a1.72,1.72,0,0,0-.58,2.46,1.67,1.67,0,0,0,2.4.67c3.52-2.08,7-4.27,10.22-6.53a171.91,171.91,0,0,0,32.14-28.74,1.88,1.88,0,0,0,0-2.59,1.94,1.94,0,0,0-1.41-.52,1.53,1.53,0,0,0-1.13.5c-2.7,3.11-5.49,6.11-8.31,8.92a167.29,167.29,0,0,1-33.35,25.83Z"/><path class="cls-3" d="M148.05,343.5a77.16,77.16,0,0,0,34,10.83,2.32,2.32,0,0,1,2.26,2.26,2.28,2.28,0,0,1-2.26,2.26,82.2,82.2,0,0,1-36.33-11.45c-2.48-1.5-.21-5.4,2.28-3.9Z"/><path class="cls-3" d="M182.23,359.29h-.16a83,83,0,0,1-36.52-11.51,2.5,2.5,0,0,1-1.29-2.25,3,3,0,0,1,1.48-2.5,2.47,2.47,0,0,1,2.54.09h0a76.88,76.88,0,0,0,33.85,10.77,2.74,2.74,0,0,1,2.67,2.7,2.83,2.83,0,0,1-.91,2A2.42,2.42,0,0,1,182.23,359.29ZM146.92,343.6a1.47,1.47,0,0,0-.74.2,2.09,2.09,0,0,0-1,1.74A1.64,1.64,0,0,0,146,347a82.11,82.11,0,0,0,36.13,11.39,1.5,1.5,0,0,0,1.15-.44,2,2,0,0,0,.63-1.37,1.87,1.87,0,0,0-1.85-1.81,77.78,77.78,0,0,1-34.24-10.9A1.74,1.74,0,0,0,146.92,343.6Z"/><path class="cls-3" d="M101.78,369.66c-6.81.17-23.67.36-39.91-10.15A48.88,48.88,0,0,1,47,345.64c-.29-.42-.77-1.13-1.36-2.07-1.1-1.75-11-17.91-5.55-32.82C43.44,301.64,51.16,296.84,59,292c7.09-4.41,7.72-2.78,18.43-8.9,8.9-5.09,10.78-7.53,17.25-9.13a27.89,27.89,0,0,1,15.22,0c4.85,1.52,6.37,3.77,11.34,7.36,11.06,8,14.71,4.94,24.06,11.73,3.37,2.45,10.35,7.52,13.86,16.83,4.12,10.94,1.17,21.63.37,24.22-.32,1-.61,1.84-.82,2.4-4.25,11.38-12.47,17.49-17.59,21.2C125.67,368.84,109.2,369.48,101.78,369.66Z"/><path class="cls-3" d="M98.71,370.15c-7.62,0-22.72-1-37.09-10.26a49.06,49.06,0,0,1-15-14c-.3-.44-.78-1.14-1.37-2.09-1.87-3-11-18.66-5.59-33.2,3.41-9.26,11.39-14.22,19.1-19a37.66,37.66,0,0,1,7.62-3.73,66,66,0,0,0,10.83-5.19c2.91-1.66,5-3,6.88-4.21,3.78-2.42,6.06-3.88,10.48-5,2.36-.58,8.63-2.13,15.46,0,3.49,1.09,5.3,2.55,7.79,4.58,1,.84,2.21,1.79,3.67,2.85a38.67,38.67,0,0,0,13,6.38,33,33,0,0,1,11.1,5.35c3.39,2.47,10.45,7.6,14,17,4.06,10.77,1.31,21.48.38,24.5-.31,1-.61,1.83-.83,2.42-4.38,11.74-13.08,18-17.75,21.4-15.9,11.5-33.1,11.92-39.58,12.08h0C101,370.12,99.94,370.15,98.71,370.15Z"/><g class="cls-4"><path class="cls-1" d="M69,307.26a57.47,57.47,0,0,1,14.92-5.15,69.94,69.94,0,0,1,15.82-1.39,74.37,74.37,0,0,1,15.73,2.06,65.11,65.11,0,0,1,14.82,5.41c-5.12-1.18-10.19-2.23-15.29-3a129.6,129.6,0,0,0-15.33-1.32,114.42,114.42,0,0,0-15.36.66A134.65,134.65,0,0,0,69,307.26Z"/></g><g class="cls-4"><path class="cls-1" d="M73.85,314.14a41.45,41.45,0,0,1,12-5.07A48.49,48.49,0,0,1,99,307.6a51.4,51.4,0,0,1,13,2,46.76,46.76,0,0,1,12,5.2,127.88,127.88,0,0,0-12.48-3,83.17,83.17,0,0,0-12.56-1.28,74.74,74.74,0,0,0-12.58.79A92.71,92.71,0,0,0,73.85,314.14Z"/></g><g class="cls-4"><path class="cls-1" d="M130.28,344.57a57.47,57.47,0,0,1-14.92,5.15,69.94,69.94,0,0,1-15.82,1.39,74.37,74.37,0,0,1-15.73-2.06A65.11,65.11,0,0,1,69,343.64c5.12,1.18,10.19,2.23,15.29,3a129.6,129.6,0,0,0,15.33,1.32,114.42,114.42,0,0,0,15.36-.66A136.9,136.9,0,0,0,130.28,344.57Z"/></g><g class="cls-4"><path class="cls-1" d="M125.42,337.68a41.45,41.45,0,0,1-12,5.07,48.49,48.49,0,0,1-13.09,1.47,51.4,51.4,0,0,1-13-2,46.76,46.76,0,0,1-12-5.2,127.88,127.88,0,0,0,12.48,3,83.17,83.17,0,0,0,12.56,1.28,74.74,74.74,0,0,0,12.58-.79A91.21,91.21,0,0,0,125.42,337.68Z"/></g><path class="cls-5" d="M194.67,314.69a3.51,3.51,0,0,1-1.26-6.78c14.8-5.78,14-18.52,10.84-38.83-1.74-11.31-3.39-22,.34-30.43,6.77-15.28,20.93-14.37,27.46-11.76a3.51,3.51,0,0,1-2.58,6.53h0c-1.31-.5-12.86-4.56-18.45,8.07-2.9,6.56-1.4,16.25.17,26.52,2.76,17.9,5.89,38.19-15.23,46.44A3.39,3.39,0,0,1,194.67,314.69Z"/><path class="cls-5" d="M373.05,315.12a3.52,3.52,0,0,0,1.3-6.79c-14.78-5.85-13.89-18.6-10.67-38.88,1.8-11.31,3.5-22-.19-30.43-6.68-15.31-20.85-14.47-27.39-11.89a3.51,3.51,0,0,0,2.55,6.54h0c1.3-.5,12.87-4.49,18.41,8.16,2.86,6.57,1.32,16.25-.3,26.52-2.85,17.89-6.07,38.17,15,46.52A3.64,3.64,0,0,0,373.05,315.12Z"/><path class="cls-3" d="M348,279.08l.17-69.42c-32.61-34.8-25.73-103.35-25.73-103.35l-38.06-.09L251,106.14s8.92,68.92-30.93,103.2l-.18,69.43s-5.47,37.74,21.48,37.81l42.47.1,42.46.1C353.3,316.84,348,279.08,348,279.08Z"/><path class="cls-2" d="M250.57,242.45a33.79,33.79,0,1,0,67.24,4.81,32.43,32.43,0,0,0-.31-4.65Z"/><path class="cls-5" d="M286.81,79.9a29.45,29.45,0,0,0-29.48,29.34,3.37,3.37,0,0,0,6.73,0,22.68,22.68,0,0,1,45.36.1,3.37,3.37,0,0,0,6.73,0A29.46,29.46,0,0,0,286.81,79.9Z"/><path class="cls-6" d="M320.67,303.6a5,5,0,0,1-4.94,4.92l-77.83-.19a4.91,4.91,0,0,1-4.9-4.93h0a4.93,4.93,0,0,1,4.93-4.92l77.83.19a4.92,4.92,0,0,1,4.91,4.93Z"/><path class="cls-6" d="M333.71,303.64a4.93,4.93,0,1,1-4.93-4.94A4.92,4.92,0,0,1,333.71,303.64Z"/></g></g></svg>