<svg xmlns="http://www.w3.org/2000/svg" viewBox="0 0 386.66 387.09"><defs><style>.cls-1{fill:#dfedfe;}.cls-2{fill:#c2d1d9;}.cls-3{fill:#fff;}.cls-4{fill:#3b89db;}.cls-5{fill:#a1c6ee;}.cls-6{fill:#f42f63;}.cls-7{fill:#ac1e47;}.cls-8{fill:#94b0dc;}.cls-9{fill:#0166d0;}.cls-10{fill:#1e3e65;}.cls-11{fill:#eabebb;}.cls-12{fill:#439aff;}</style></defs><g id="Capa_2" data-name="Capa 2"><g id="Layer_1" data-name="Layer 1"><rect class="cls-1" width="386.66" height="387.08"/><path class="cls-2" d="M248.42,223.65,0,387.09H386.66V223.77H249.84A12.53,12.53,0,0,1,248.42,223.65Z"/><path class="cls-3" d="M94.61,317.58,163,363a14.9,14.9,0,0,0,16.49,0l68.35-45.45a14.89,14.89,0,0,0,0-24.8l-68.35-45.45a14.9,14.9,0,0,0-16.49,0L94.61,292.78A14.88,14.88,0,0,0,94.61,317.58Z"/><path class="cls-4" d="M284.12,155.77v92.14a8.16,8.16,0,0,1-8.17,8.15H194a8.15,8.15,0,0,1-8.15-8.15V168.42a13,13,0,0,1,3.55-8.26l4.65-4.38h90.09Z"/><path class="cls-5" d="M284.12,126.37v29.4H194l4.48-4.22,15.79-14.86,16-15.11a14.19,14.19,0,0,1,8.45-3.36H276A8.15,8.15,0,0,1,284.12,126.37Zm-9.66,7.23v-7a1.64,1.64,0,0,0-1.63-1.63H244.54a14.37,14.37,0,0,0-8.48,3.33l-3.85,3.58c-2,1.85-1.39,3.33,1.31,3.33h39.3A1.61,1.61,0,0,0,274.46,133.6Z"/><path class="cls-6" d="M196.77,117l7.35,8L187.43,140.3l-7.35-8c-1.52-1.66-1.64-4-.28-5.24l5.88-5.41,5.9-5.4C192.94,115,195.27,115.31,196.77,117Z"/><path class="cls-7" d="M214,131.4a1.86,1.86,0,0,1,.14,2.61l-1.33,1.22-8,7.29L196.7,150,195.56,151a1.86,1.86,0,0,1-2.6-.36l-6.32-6.9a1.79,1.79,0,0,1-.3-2.47l1.08-1L204.11,125l1.08-1a1.79,1.79,0,0,1,2.44.5Z"/><path class="cls-3" d="M194.77,147.73a.83.83,0,0,1-.58-.25l-4.79-5.22a.78.78,0,0,1,1.15-1l4.79,5.22a.77.77,0,0,1-.57,1.3Z"/><path class="cls-3" d="M197.84,144.91a.83.83,0,0,1-.58-.25l-4.79-5.22a.78.78,0,0,1,1.15-1.05l4.79,5.22a.77.77,0,0,1-.57,1.3Z"/><path class="cls-3" d="M200.91,142.1a.83.83,0,0,1-.58-.25l-4.79-5.22a.79.79,0,0,1,.05-1.11.78.78,0,0,1,1.1,0l4.79,5.22a.79.79,0,0,1,0,1.11A.77.77,0,0,1,200.91,142.1Z"/><path class="cls-3" d="M204,139.28a.83.83,0,0,1-.58-.25l-4.79-5.22a.79.79,0,0,1,0-1.11.78.78,0,0,1,1.1.05l4.79,5.22a.79.79,0,0,1-.05,1.11A.81.81,0,0,1,204,139.28Z"/><path class="cls-3" d="M207,136.47a.83.83,0,0,1-.58-.25L201.67,131a.79.79,0,0,1,.05-1.11.78.78,0,0,1,1.1.05l4.79,5.22a.79.79,0,0,1-.05,1.11A.77.77,0,0,1,207,136.47Z"/><path class="cls-3" d="M210.11,133.65a.83.83,0,0,1-.58-.25l-4.79-5.22a.79.79,0,0,1,0-1.11.78.78,0,0,1,1.1.05l4.79,5.22a.79.79,0,0,1-.05,1.11A.77.77,0,0,1,210.11,133.65Z"/><path class="cls-3" d="M198.93,182.15h2.61a2.5,2.5,0,0,1,1.91.68,2.86,2.86,0,0,1,.64,2v5.5a2.8,2.8,0,0,1-.64,2,2.46,2.46,0,0,1-1.91.68h-2.61Zm2.57,9.32a.8.8,0,0,0,.64-.25,1.19,1.19,0,0,0,.23-.81v-5.65a1.21,1.21,0,0,0-.23-.81.8.8,0,0,0-.64-.25h-.87v7.77Z"/><path class="cls-3" d="M205.23,182.15h4.66v1.55h-2.95v2.87h2.35v1.55h-2.35v3.34h2.95V193h-4.66Z"/><path class="cls-3" d="M211.24,192.47a3,3,0,0,1-.64-2v-.62h1.62v.75c0,.7.3,1.06.89,1.06a.84.84,0,0,0,.66-.26,1.25,1.25,0,0,0,.23-.83,2.23,2.23,0,0,0-.31-1.2,5.81,5.81,0,0,0-1.15-1.25,6.86,6.86,0,0,1-1.48-1.69,3.43,3.43,0,0,1-.42-1.7,2.88,2.88,0,0,1,.65-2,2.46,2.46,0,0,1,1.9-.71,2.37,2.37,0,0,1,1.86.71,3,3,0,0,1,.63,2v.45h-1.62v-.56a1.26,1.26,0,0,0-.22-.82.81.81,0,0,0-.64-.26c-.57,0-.85.35-.85,1a2.07,2.07,0,0,0,.32,1.1,5.9,5.9,0,0,0,1.16,1.24,6.62,6.62,0,0,1,1.48,1.69,3.75,3.75,0,0,1,.4,1.79,2.92,2.92,0,0,1-.66,2,2.47,2.47,0,0,1-1.92.71A2.35,2.35,0,0,1,211.24,192.47Z"/><path class="cls-3" d="M216.68,182.15h1.71V193h-1.71Z"/><path class="cls-3" d="M219.66,182.15h2.14l1.66,6.51h0v-6.51H225V193h-1.76l-2.05-7.94h0V193h-1.51Z"/><path class="cls-3" d="M226.29,182.15h4.52v1.55H228v3h2.21v1.55H228V193h-1.71Z"/><path class="cls-3" d="M231.64,182.15h4.66v1.55h-3v2.87h2.35v1.55h-2.35v3.34h3V193h-4.66Z"/><path class="cls-3" d="M237.81,192.48a2.8,2.8,0,0,1-.64-2v-5.84a2.78,2.78,0,0,1,.64-2,2.85,2.85,0,0,1,3.74,0,2.8,2.8,0,0,1,.64,2v1.15h-1.62v-1.26c0-.67-.28-1-.85-1s-.85.34-.85,1v6.07c0,.66.28,1,.85,1s.85-.33.85-1V189h1.62v1.54a2.83,2.83,0,0,1-.64,2,2.4,2.4,0,0,1-1.87.7A2.45,2.45,0,0,1,237.81,192.48Z"/><path class="cls-3" d="M244.56,183.7h-1.79v-1.55h5.28v1.55h-1.79V193h-1.71V183.7Z"/><path class="cls-3" d="M249.49,182.15h2.31L253.57,193h-1.71l-.31-2.16v0h-1.94L249.3,193h-1.58Zm1.86,7.27-.76-5.37h0l-.75,5.37Z"/><path class="cls-3" d="M254.39,182.15h2.14l1.66,6.51h0v-6.51h1.52V193H258l-2.05-7.94h0V193h-1.52V182.15Z"/><path class="cls-3" d="M262.36,183.7h-1.79v-1.55h5.28v1.55h-1.79V193h-1.71V183.7Z"/><path class="cls-3" d="M266.68,182.15h4.66v1.55h-2.95v2.87h2.35v1.55h-2.35v3.34h2.95V193h-4.66Z"/><path class="cls-8" d="M326.62,180.86v-2.71H301.54v2.71c0,5.24-7,16-18.37,28a11.72,11.72,0,0,0-3.18,8V332.75a11.16,11.16,0,0,0,11.15,11.15H337a11.16,11.16,0,0,0,11.15-11.15V216.94a11.72,11.72,0,0,0-3.18-8C333.66,196.84,326.62,186.1,326.62,180.86Z"/><rect class="cls-9" x="292.81" y="220.4" width="42.54" height="110.67"/><path class="cls-10" d="M335.33,157.35s-8.18,6.2-8.17,12.81c0,0,11.9,15.92,21.88,20.81a1.77,1.77,0,0,0,2.13-2.67C346.23,181.39,336.81,167.19,335.33,157.35Z"/><path class="cls-10" d="M356.7,140.16l-8.69-.53a1.56,1.56,0,0,0-1.35-.79h-2.52v10.8h2.52a1.57,1.57,0,0,0,1.35-.79l8.68-.6a.65.65,0,0,0,.52-.68v-6.73A.62.62,0,0,0,356.7,140.16Z"/><path class="cls-10" d="M297,137.43a5.36,5.36,0,0,0-3.65,1.45L269.86,161a3.1,3.1,0,0,0,0,4.54,3,3,0,0,0,2,.76c5.88-.06,11.37-.1,16.31-.1,3.3,0,5.9,0,7.84,0a4.58,4.58,0,0,1,4.47,4.61v7.39h25.79c0-16.36,17.59-26.68,17.76-26.78l0,0V137.43Z"/><path class="cls-10" d="M329.64,173.09H298.53a1.64,1.64,0,0,0-1.74,1.48v9.07a1.62,1.62,0,0,0,1.74,1.48h31.11a1.62,1.62,0,0,0,1.73-1.48v-9.07A1.63,1.63,0,0,0,329.64,173.09Z"/><polygon class="cls-11" points="0.75 153.03 54.32 200.28 89.14 162.59 0.75 36.84 0.75 153.03"/><path class="cls-12" d="M172.82,256.54a1.48,1.48,0,0,1,2.3-.31l32.42,31.34a6.7,6.7,0,0,0,4.62,1.88h.06a6.69,6.69,0,0,0,4.84-11.29l-47.37-50-.08-.1a29.36,29.36,0,0,0-2.24-2.55s-10.15-9.45-12-10.89c-15.85-12.32-28.47-21.76-34.84-21.94a1.46,1.46,0,0,1-1.1-.53L83.76,145.84a2,2,0,0,0-1.3-.74,1.91,1.91,0,0,0-1.44.42c-8.84,7.14-36.41,30-48,40a1.9,1.9,0,0,0-.67,1.42,1.93,1.93,0,0,0,.61,1.45l48.2,45.15.08.07a1.48,1.48,0,0,1,.53,1.12c0,4.84,2.92,16.7,3.47,18.24a5.89,5.89,0,0,0,.24.56l29.83,64.07a7.93,7.93,0,0,0,7.13,4.56,8.15,8.15,0,0,0,3.37-.74,7.91,7.91,0,0,0,4-10l-10.61-27a1.49,1.49,0,0,1,.55-1.77,1.47,1.47,0,0,1,1.85.17l53.6,52.08a6.63,6.63,0,0,0,4.63,1.89h.05a6.7,6.7,0,0,0,4.83-11.31l-38-39.87a1.48,1.48,0,0,1,2.1-2.08L195.67,329a6.68,6.68,0,0,0,4.63,1.9h.06a6.61,6.61,0,0,0,4.77-2,6.68,6.68,0,0,0,.05-9.29l-45-47.2a1.49,1.49,0,0,1,0-2.07l.23-.22a1.47,1.47,0,0,1,2.07,0l45,43.83a6.69,6.69,0,0,0,4.64,1.9h.06A6.7,6.7,0,0,0,217,304.53l-44-46.16a1.49,1.49,0,0,1-.22-1.74Z"/></g></g></svg>