<svg xmlns="http://www.w3.org/2000/svg" viewBox="0 0 385.91 385.61"><defs><style>.cls-1{fill:#dfedfe;}.cls-2{fill:#fff;}.cls-3{fill:none;}.cls-4{fill:#1e3e65;}.cls-5{fill:#0166d0;}</style></defs><g id="Capa_2" data-name="Capa 2"><g id="Layer_1" data-name="Layer 1"><rect class="cls-1" width="385.91" height="385.61"/><path class="cls-2" d="M92,329.2H293.87a18.58,18.58,0,0,0,18.58-18.58V75a18.58,18.58,0,0,0-18.58-18.58H92A18.58,18.58,0,0,0,73.45,75V310.62A18.58,18.58,0,0,0,92,329.2Z"/><line class="cls-3" x1="86.41" y1="108.13" x2="295.48" y2="108.13"/><path class="cls-4" d="M295.48,105.76h-209a2.44,2.44,0,0,0-2.41,1.78,2.37,2.37,0,0,0,2.29,2.95h209a2.44,2.44,0,0,0,2.41-1.78A2.36,2.36,0,0,0,295.48,105.76Z"/><path class="cls-2" d="M194.46,138a79.2,79.2,0,1,0,77.68,77.68A79.21,79.21,0,0,0,194.46,138Z"/><path class="cls-4" d="M196.79,135.33a81.91,81.91,0,1,0,78,78A82,82,0,0,0,196.79,135.33Zm-.25,158.23a76.49,76.49,0,1,1,72.82-72.82A76.57,76.57,0,0,1,196.54,293.56Z"/><path class="cls-4" d="M195.06,152.66A64.52,64.52,0,1,0,257.43,215,64.52,64.52,0,0,0,195.06,152.66Z"/><path class="cls-5" d="M287.54,71.88H239.16a2.86,2.86,0,0,0-2.86,2.86v15a2.86,2.86,0,0,0,2.86,2.86h48.38a2.86,2.86,0,0,0,2.86-2.86v-15A2.87,2.87,0,0,0,287.54,71.88Z"/><path class="cls-2" d="M222.53,202.14l-1.49-.89a8.91,8.91,0,0,0-9.11,0l-5.36,3.43a4.37,4.37,0,0,1-4.18,0l-4.74-3.22a9,9,0,0,0-9.32-.05l-5,3.32a4.42,4.42,0,0,1-4.15,0l-5.41-3.46a8.91,8.91,0,0,0-9.15,0l-1.23.83-3-14.31-4.51.95L168,246.53h49.9l12.16-57.78-4.51-.95Zm-8.37,39.76H171.74L164.38,207l2.73-1.84a4.44,4.44,0,0,1,4.13,0l5.41,3.47a8.91,8.91,0,0,0,9.17,0l5-3.32a4.41,4.41,0,0,1,4.2,0l4.74,3.22a9,9,0,0,0,9.25.1l5.36-3.44a4.44,4.44,0,0,1,4.19,0l2.91,1.75Z"/><path class="cls-2" d="M178.51,220.38a4.71,4.71,0,1,0,4.71,4.71A4.71,4.71,0,0,0,178.51,220.38Z"/><path class="cls-2" d="M193,220.38a4.71,4.71,0,1,0,4.71,4.71A4.71,4.71,0,0,0,193,220.38Z"/><path class="cls-2" d="M207.4,220.38a4.71,4.71,0,1,0,4.71,4.71A4.71,4.71,0,0,0,207.4,220.38Z"/><path class="cls-2" d="M252,193.61a7.84,7.84,0,0,0-7.84,7.84v31.39a7.84,7.84,0,0,0,15.68,0V201.45A7.84,7.84,0,0,0,252,193.61Z"/><path class="cls-4" d="M252,191.21a10.25,10.25,0,0,0-10.24,10.24v31.39a10.24,10.24,0,0,0,20.48,0V201.45A10.25,10.25,0,0,0,252,191.21Zm5.44,41.63a5.44,5.44,0,0,1-10.88,0V201.45a5.44,5.44,0,0,1,10.88,0Z"/><path class="cls-5" d="M193,67.5a14.73,14.73,0,1,0,14.73,14.73A14.75,14.75,0,0,0,193,67.5Zm0,25a10.27,10.27,0,1,1,10.27-10.27A10.29,10.29,0,0,1,193,92.5Z"/><rect class="cls-4" x="138.15" y="67.16" width="3.99" height="41.31"/><path class="cls-5" d="M122.1,78.88H92.21a3.35,3.35,0,1,0,0,6.7H122.1a3.35,3.35,0,0,0,0-6.7Z"/></g></g></svg>