<svg xmlns="http://www.w3.org/2000/svg" viewBox="0 0 842.28 387.08"><defs><style>.cls-1{fill:#dfedfe;}.cls-2{fill:#eabebb;}.cls-3{fill:#439aff;}.cls-4{fill:#0166d0;}.cls-5{fill:#1e3e65;}.cls-6{fill:#517eb1;}.cls-7{fill:#e2e3e4;}.cls-8{fill:#cdcfd0;}.cls-9{fill:#94b0dc;}.cls-10{fill:#fff;}</style></defs><g id="Capa_2" data-name="Capa 2"><g id="Layer_1" data-name="Layer 1"><rect class="cls-1" x="0.79" width="841.49" height="387.08"/><path class="cls-2" d="M243.27,255.54l-67.14-33.91c.06-.35.11-.69.15-1l58.2,26.7a8.63,8.63,0,0,0,7.6-15.49l-77.42-39.16,35.21,1.64h.45a10,10,0,0,0,10-8.88,9.86,9.86,0,0,0-2.16-7.32,10,10,0,0,0-6.75-3.66s-80.53-8.61-80.73-8.61c-1.22,0-12.48,0-21,3.08L.23,117v80.44L71,226a46.42,46.42,0,0,0,23.44,25.9l1.17.55v0L111.34,260a9.56,9.56,0,0,0,1.16.63l2.54,1.16,6.17,3a35.13,35.13,0,0,0,3.69,1.52l70.68,32.21a8.76,8.76,0,0,0,11.36-3.89,8.49,8.49,0,0,0,.55-6.57,8.59,8.59,0,0,0-4.3-5l-45.95-23.39c.27-.28.54-.57.8-.86L223.79,289a8.75,8.75,0,0,0,11.41-3.89,8.44,8.44,0,0,0,.52-6.57,8.56,8.56,0,0,0-4.32-5l-63.73-32.19.62-1.27L235.65,271a8.67,8.67,0,0,0,3.65.8h0a8.67,8.67,0,0,0,7.75-4.69A8.58,8.58,0,0,0,243.27,255.54Z"/><path class="cls-3" d="M243.27,255.54l-67.14-33.91c.06-.35.11-.69.15-1l58.2,26.7a8.63,8.63,0,0,0,7.6-15.49l-77.42-39.16,35.21,1.64h.45a10,10,0,0,0,10-8.88,9.86,9.86,0,0,0-2.16-7.32,10,10,0,0,0-6.75-3.66s-80.53-8.61-80.73-8.61c-1.22,0-12.48,0-21,3.08l-49.3-25.7-25.95,64L71,226a46.42,46.42,0,0,0,23.44,25.9l1.17.55v0l15.73,7.58a9.56,9.56,0,0,0,1.16.63l2.54,1.16,6.17,3a35.13,35.13,0,0,0,3.69,1.52l70.68,32.21A8.76,8.76,0,0,0,207,294.66a8.49,8.49,0,0,0,.55-6.57,8.59,8.59,0,0,0-4.3-5l-45.95-23.39c.27-.28.54-.57.8-.86L223.8,289a8.75,8.75,0,0,0,11.41-3.89,8.44,8.44,0,0,0,.52-6.57,8.56,8.56,0,0,0-4.32-5l-63.73-32.19.62-1.27,67.36,31a8.67,8.67,0,0,0,3.65.8h0a8.61,8.61,0,0,0,4-16.3Z"/><path class="cls-4" d="M330.12,250.52a37.47,37.47,0,0,0-49.9-35.35,40.54,40.54,0,0,0-73.56-3.68,33.81,33.81,0,0,0-43.27,43.67,50.37,50.37,0,0,0,36.45,79.09,33,33,0,0,0,59-5.58A50.38,50.38,0,0,0,328,262.83,36.71,36.71,0,0,0,330.12,250.52Z"/><rect class="cls-5" x="295.19" y="47.94" width="14.08" height="27.81"/><path class="cls-5" d="M321.07,36.11l-17.91,2.33a7.32,7.32,0,0,1-1.87,0l-17.91-2.33a7.2,7.2,0,1,0,0,14.28l17.91-2.33a7.32,7.32,0,0,1,1.87,0l17.91,2.33a7.2,7.2,0,1,0,0-14.28Z"/><path class="cls-5" d="M240.18,95.42v24.79h16.48V95.42a9.53,9.53,0,0,1,9.51-9.51h120V69.43H266.18A26,26,0,0,0,240.18,95.42Z"/><path class="cls-6" d="M0,238.24l119,8s79-34,84-35,25.36-8.37,18.68,13.81L130,264.24,0,258.64v-20.4Z"/><path class="cls-6" d="M217.76,243.81l62.24.43s8,0,8,7-8.14,6.18-8.14,6.18l1.14,7.82,13,2s4,1,4,7-3,8-6,8h-1l-1,10s5,1,5,4,1,5-4,7-53,4-53,4H193l-12-65Z"/><path class="cls-2" d="M289,269.87l-75.36-1.39c-.1-.34-.21-.67-.33-1l64.13-1.22a8.61,8.61,0,0,0,0-17.22l-86.92-1.65,32.39-13.79a10,10,0,0,0,5.49-12.51,10.09,10.09,0,0,0-12.86-6l-75.15,26.73c-.22.08-.48.18-.7.28-1.31.56-11.73,5.25-17.84,11.92L.24,245.91v82.26L121,317.83a47.57,47.57,0,0,0,32.68,13.28l1.3,0v0h17.49a11.28,11.28,0,0,0,1.13.06l3-.06h6.86a36.24,36.24,0,0,0,4-.23l77.79-1.68a8.61,8.61,0,0,0,0-17.22l-51.65-1.11c.12-.37.24-.75.34-1.13l72.47-1.33a8.61,8.61,0,0,0,0-17.22l-71.53-1.32v-1.41l74.24-1.37a8.61,8.61,0,0,0,0-17.22Z"/><path class="cls-3" d="M289,269.87l-75.36-1.39c-.1-.34-.21-.67-.33-1l64.13-1.22a8.61,8.61,0,0,0,0-17.22l-86.92-1.65,32.39-13.79a10,10,0,0,0,5.49-12.51,10.09,10.09,0,0,0-12.86-6l-75.15,26.73c-.22.08-.48.18-.7.28-1.31.56-11.73,5.25-17.84,11.92l-53.67-3.58.58,71.86L121,317.83a47.57,47.57,0,0,0,32.68,13.28l1.3,0v0h17.49a11.28,11.28,0,0,0,1.13.06l3-.06h6.86a36.24,36.24,0,0,0,4-.23l77.79-1.68a8.61,8.61,0,0,0,0-17.22l-51.65-1.11c.12-.37.24-.75.34-1.13l72.47-1.33a8.61,8.61,0,0,0,0-17.22l-71.53-1.32v-1.41l74.24-1.37a8.61,8.61,0,0,0,0-17.22Z"/><path class="cls-4" d="M234.7,161.8a13.74,13.74,0,0,0,27.48,0c0-7.59-13.74-27.28-13.74-27.28S234.7,154.21,234.7,161.8Z"/><path class="cls-4" d="M808.15,293.06a14.7,14.7,0,0,0-14.7-14.7,14.52,14.52,0,0,0-4.87.83,15.9,15.9,0,0,0-28.85-1.44,13.26,13.26,0,0,0-17,17.13,19.75,19.75,0,0,0,14.3,31,12.94,12.94,0,0,0,23.15-2.18,19.76,19.76,0,0,0,27.13-25.83A14.88,14.88,0,0,0,808.15,293.06Z"/><path class="cls-4" d="M682.83,273.24a12.12,12.12,0,0,0-12.12-12.12,11.91,11.91,0,0,0-4,.69,13.11,13.11,0,0,0-23.79-1.19,10.94,10.94,0,0,0-14,14.12,16.29,16.29,0,0,0,11.79,25.58,10.66,10.66,0,0,0,19.08-1.8,16.3,16.3,0,0,0,22.38-21.3A12,12,0,0,0,682.83,273.24Z"/><path class="cls-7" d="M676.59,366.55c8.1-1.54,16.18-7.35,23.55-10.23a164,164,0,0,1,68.05-11.19c52.77,2.74,23-46.26,0-55.17S678.07,267.69,638,298.53c-14.58,11.21-20.39,27.06-8.12,42.27,9.13,11.33,22.36,16.93,34.62,23.94A17.13,17.13,0,0,0,676.59,366.55Z"/><path class="cls-8" d="M795.18,317.93c-27,11-45,10.83-65.81,12.89-21.19,2.11-27-.51-66.19,11.11-27,8-39-25-39-25s17,27,55,17,58-8,66-9S797.5,317,795.18,317.93Z"/><path class="cls-4" d="M728.68,260.73a12.12,12.12,0,0,0-12.12-12.12,11.91,11.91,0,0,0-4,.69,13.11,13.11,0,0,0-23.79-1.19,10.94,10.94,0,0,0-14,14.12,16.29,16.29,0,0,0,11.79,25.58,10.66,10.66,0,0,0,19.08-1.8A16.3,16.3,0,0,0,728,264.71,12.13,12.13,0,0,0,728.68,260.73Z"/><path class="cls-4" d="M760.91,270.31a9.81,9.81,0,0,0-9.81-9.81,10,10,0,0,0-3.25.55,10.61,10.61,0,0,0-19.25-1,8.84,8.84,0,0,0-11.31,11.42,13.18,13.18,0,0,0,9.54,20.69,8.64,8.64,0,0,0,15.45-1.46,13.19,13.19,0,0,0,18.1-17.23A9.85,9.85,0,0,0,760.91,270.31Z"/><path class="cls-9" d="M568.3,69.16l0-3.53L535.61,66l0,3.53c.07,6.82-8.94,20.9-23.52,36.76a15.2,15.2,0,0,0-4,10.51l1.62,150.77a14.54,14.54,0,0,0,14.67,14.36l59.74-.64a14.54,14.54,0,0,0,14.36-14.67l-1.62-150.77a15.21,15.21,0,0,0-4.26-10.42C577.69,89.87,568.37,76,568.3,69.16Z"/><rect class="cls-4" x="525.53" y="120.74" width="55.38" height="144.08" transform="translate(-2.03 5.93) rotate(-0.61)"/><path class="cls-5" d="M579.31,38.43s-10.56,8.19-10.45,16.79c0,0,15.72,20.56,28.78,26.78a2.3,2.3,0,0,0,2.74-3.5C593.83,69.57,581.37,51.22,579.31,38.43Z"/><path class="cls-5" d="M606.89,15.75l-11.32-.57a2,2,0,0,0-1.76-1l-3.28,0,.15,14.07,3.28,0a2,2,0,0,0,1.74-1l11.3-.9a.85.85,0,0,0,.67-.89l-.09-8.76A.84.84,0,0,0,606.89,15.75Z"/><path class="cls-5" d="M529.18,13A7,7,0,0,0,524.45,15L494.13,44.05a4,4,0,0,0,.12,5.91,3.87,3.87,0,0,0,2.65,1c7.66-.17,14.8-.28,21.24-.35,4.3,0,7.68-.06,10.21-.07a6,6,0,0,1,5.88,5.94l.1,9.62,33.58-.36h0c-.23-21.3,22.53-35,22.75-35.11l.05,0s-.2-18.17-.2-18.17Z"/><path class="cls-5" d="M572.12,59l-40.5.43a2.12,2.12,0,0,0-2.24,2l.13,11.81a2.13,2.13,0,0,0,2.28,1.91l40.5-.43a2.12,2.12,0,0,0,2.24-2l-.13-11.81A2.13,2.13,0,0,0,572.12,59Z"/><path class="cls-10" d="M536,172.43A17.51,17.51,0,0,1,536,186q-1.37,2.37-4.75,2.37T526.51,186a17.51,17.51,0,0,1,0-13.53q1.37-2.38,4.75-2.38C533.52,170,535.1,170.84,536,172.43Zm-6.8,11.44a2.1,2.1,0,0,0,4.09,0,17.42,17.42,0,0,0,.48-4.68,17.12,17.12,0,0,0-.48-4.74,2.13,2.13,0,0,0-4.09,0,16.69,16.69,0,0,0-.5,4.74A16.1,16.1,0,0,0,529.21,183.87Z"/><path class="cls-10" d="M539.85,184.24h3.7v3.66h-3.7Z"/><path class="cls-10" d="M549.38,183.15a3.35,3.35,0,0,0,.79,1.75,2.25,2.25,0,0,0,1.71.62,2.3,2.3,0,0,0,2-.91,3.75,3.75,0,0,0,.68-2.29,4,4,0,0,0-.63-2.29,2.23,2.23,0,0,0-2-.94,3.31,3.31,0,0,0-1.1.16,2.19,2.19,0,0,0-1.23,1.09l-3.12-.15,1.24-9.79h9.75v3h-7.24l-.63,3.88a8,8,0,0,1,1.26-.7,5.24,5.24,0,0,1,1.84-.28,5.35,5.35,0,0,1,5.47,5.78,6.77,6.77,0,0,1-1.58,4.39,5.71,5.71,0,0,1-4.71,1.93,6.21,6.21,0,0,1-4.15-1.36,5.27,5.27,0,0,1-1.81-3.85Z"/><path class="cls-10" d="M567.52,178a4.56,4.56,0,1,1,1.33-3.22A4.46,4.46,0,0,1,567.52,178Zm-1.85-1.84a2,2,0,1,0-1.38.57A1.88,1.88,0,0,0,565.67,176.17Zm8.56-6h1.85l-9.87,18.19h-1.89Zm5.16,16.75a4.56,4.56,0,1,1,1.33-3.22A4.38,4.38,0,0,1,579.39,186.91Zm-1.84-4.59a2,2,0,1,0,.57,1.38A1.88,1.88,0,0,0,577.55,182.32Z"/><polyline class="cls-1" points="496.97 283.33 645.41 193.46 604.88 323.62 486.76 289.14"/><rect class="cls-5" x="547.79" y="260.98" width="23.17" height="6.95" transform="translate(-54.77 339.7) rotate(-32.29)"/><rect class="cls-5" x="508.6" y="285.75" width="23.17" height="6.95" transform="translate(-74.06 322.59) rotate(-32.29)"/><rect class="cls-5" x="626.14" y="211.45" width="23.17" height="6.95" transform="translate(-16.2 373.9) rotate(-32.29)"/><rect class="cls-5" x="469.43" y="310.5" width="23.17" height="6.95" transform="translate(-93.34 305.5) rotate(-32.29)"/><rect class="cls-5" x="586.96" y="236.22" width="23.17" height="6.95" transform="translate(-35.49 356.8) rotate(-32.29)"/><rect class="cls-5" x="782.86" y="112.39" width="23.17" height="6.95" transform="translate(60.95 442.3) rotate(-32.29)"/><rect class="cls-5" x="743.53" y="137.2" width="23.17" height="6.95" transform="matrix(0.85, -0.53, 0.53, 0.85, 41.59, 425.06)"/><rect class="cls-5" x="665.3" y="186.72" width="23.17" height="6.95" transform="translate(3.07 390.99) rotate(-32.29)"/><rect class="cls-5" x="704.47" y="161.99" width="23.17" height="6.95" transform="translate(22.34 408.09) rotate(-32.29)"/></g></g></svg>