<svg xmlns="http://www.w3.org/2000/svg" viewBox="0 0 385.91 385.61"><defs><style>.cls-1{fill:#dfedfe;}.cls-2{fill:#0166d0;}.cls-3{opacity:0.18;}.cls-4{fill:#fff;}.cls-5{fill:none;}.cls-6{fill:#1e3e65;}.cls-7{fill:#3b89db;}.cls-8{fill:#a1c6ee;}.cls-9{fill:#f42f63;}.cls-10{fill:#ac1e47;}</style></defs><g id="Capa_2" data-name="Capa 2"><g id="Layer_1" data-name="Layer 1"><rect class="cls-1" width="385.91" height="385.61"/><path class="cls-2" d="M61.53,145.88A127.85,127.85,0,0,1,36.22,126.3Q33,123,29.92,119.53a1.74,1.74,0,0,0-2.43,0,1.76,1.76,0,0,0,0,2.43A131,131,0,0,0,52,143.87q3.81,2.63,7.79,5a1.72,1.72,0,0,0,1.74-3Z"/><path class="cls-2" d="M60.67,149.43a2,2,0,0,1-1-.3c-2.69-1.59-5.32-3.27-7.81-5a131.22,131.22,0,0,1-24.57-22,2.07,2.07,0,0,1,0-2.88,2.16,2.16,0,0,1,1.57-.59,1.88,1.88,0,0,1,1.35.61c2,2.35,4.15,4.62,6.29,6.75a127.21,127.21,0,0,0,25.24,19.53h0a1.87,1.87,0,0,1,1,1.69,2.28,2.28,0,0,1-1.12,1.9A2,2,0,0,1,60.67,149.43ZM28.76,119.36a1.46,1.46,0,0,0-1,.4,1.43,1.43,0,0,0,0,2,130.94,130.94,0,0,0,24.45,21.86c2.48,1.71,5.1,3.38,7.77,5a1.23,1.23,0,0,0,1.27,0,1.59,1.59,0,0,0,.78-1.32,1.25,1.25,0,0,0-.66-1.11h0A127.62,127.62,0,0,1,36,126.53c-2.14-2.14-4.27-4.42-6.32-6.78a1.17,1.17,0,0,0-.86-.38Z"/><path class="cls-2" d="M57.68,177.21a58.82,58.82,0,0,1-25.89,8.24,1.77,1.77,0,0,0-1.72,1.72,1.74,1.74,0,0,0,1.72,1.72,62.49,62.49,0,0,0,27.63-8.71c1.88-1.15.16-4.11-1.74-3Z"/><path class="cls-2" d="M31.69,189.22a1.86,1.86,0,0,1-1.26-.52,2.13,2.13,0,0,1-.7-1.53,2.07,2.07,0,0,1,2-2,58.67,58.67,0,0,0,25.75-8.19h0a1.93,1.93,0,0,1,2.73.72,2,2,0,0,1-.66,2.82,63.23,63.23,0,0,1-27.78,8.76ZM57.86,177.5a59.3,59.3,0,0,1-26,8.29,1.42,1.42,0,0,0-1.4,1.38,1.45,1.45,0,0,0,.48,1,1.14,1.14,0,0,0,.87.34,62.44,62.44,0,0,0,27.48-8.66,1.32,1.32,0,0,0,.43-1.89,1.26,1.26,0,0,0-1.82-.5Z"/><path class="cls-2" d="M127,145.88a127.85,127.85,0,0,0,25.31-19.58q3.27-3.27,6.3-6.77a1.74,1.74,0,0,1,2.43,0,1.76,1.76,0,0,1,0,2.43,131,131,0,0,1-24.51,21.91q-3.81,2.63-7.79,5a1.72,1.72,0,0,1-1.74-3Z"/><path class="cls-2" d="M127.84,149.42a2,2,0,0,1-1.72-1,2,2,0,0,1,.68-2.79h0A127.21,127.21,0,0,0,152,126.06c2.13-2.13,4.25-4.4,6.29-6.75a1.86,1.86,0,0,1,1.34-.61,2.12,2.12,0,0,1,1.57.59,2.07,2.07,0,0,1,0,2.88,131.22,131.22,0,0,1-24.57,22c-2.5,1.72-5.13,3.4-7.81,5A2.13,2.13,0,0,1,127.84,149.42Zm-.7-3.25a1.3,1.3,0,0,0-.44,1.87,1.28,1.28,0,0,0,1.83.51c2.67-1.58,5.29-3.25,7.77-5a130.59,130.59,0,0,0,24.45-21.86,1.43,1.43,0,0,0,0-2,1.5,1.5,0,0,0-1.07-.4,1.17,1.17,0,0,0-.86.38c-2.05,2.36-4.18,4.64-6.32,6.78a127.93,127.93,0,0,1-25.38,19.65Z"/><path class="cls-2" d="M130.82,177.21a58.82,58.82,0,0,0,25.89,8.24,1.77,1.77,0,0,1,1.72,1.72,1.74,1.74,0,0,1-1.72,1.72,62.49,62.49,0,0,1-27.63-8.71c-1.88-1.15-.16-4.11,1.74-3Z"/><path class="cls-2" d="M156.81,189.22h-.12a63.06,63.06,0,0,1-27.77-8.76,1.9,1.9,0,0,1-1-1.71,2.28,2.28,0,0,1,1.13-1.9,1.86,1.86,0,0,1,1.93.07h0a58.54,58.54,0,0,0,25.75,8.19,2.09,2.09,0,0,1,2,2,2.11,2.11,0,0,1-.7,1.53A1.85,1.85,0,0,1,156.81,189.22ZM130,177.29a1.2,1.2,0,0,0-.57.15,1.58,1.58,0,0,0-.78,1.32,1.21,1.21,0,0,0,.66,1.12,62.44,62.44,0,0,0,27.48,8.66,1.11,1.11,0,0,0,.87-.34,1.47,1.47,0,0,0,.48-1,1.43,1.43,0,0,0-1.4-1.38,59.13,59.13,0,0,1-26-8.29A1.37,1.37,0,0,0,130,177.29Z"/><path class="cls-2" d="M95.63,197.1c-5.18.13-18,.27-30.35-7.72A37.16,37.16,0,0,1,54,178.83c-.22-.32-.59-.86-1-1.57-.83-1.33-8.4-13.62-4.22-25,2.55-6.93,8.43-10.58,14.39-14.29,5.39-3.35,5.87-2.11,14-6.77,6.77-3.87,8.19-5.73,13.12-7a21.21,21.21,0,0,1,11.58,0c3.69,1.16,4.84,2.87,8.62,5.6,8.41,6.08,11.19,3.75,18.29,8.92,2.57,1.86,7.87,5.72,10.54,12.8,3.13,8.32.89,16.45.28,18.42-.24.78-.47,1.4-.62,1.82-3.23,8.65-9.48,13.3-13.38,16.12C113.79,196.48,101.27,197,95.63,197.1Z"/><path class="cls-2" d="M93.29,197.48c-5.8,0-17.28-.74-28.2-7.8A37.26,37.26,0,0,1,53.68,179c-.23-.34-.59-.87-1-1.59-1.42-2.28-8.33-14.19-4.25-25.25,2.59-7,8.66-10.81,14.53-14.46a28.31,28.31,0,0,1,5.79-2.83A50.17,50.17,0,0,0,77,131c2.21-1.27,3.82-2.29,5.24-3.2,2.87-1.84,4.61-3,8-3.78a21.68,21.68,0,0,1,11.76,0,16,16,0,0,1,5.93,3.48c.79.64,1.68,1.36,2.79,2.17a29.43,29.43,0,0,0,9.85,4.85,25.1,25.1,0,0,1,8.44,4.07c2.58,1.88,7.95,5.78,10.66,13,3.09,8.19,1,16.33.29,18.63-.24.77-.46,1.39-.63,1.84-3.33,8.93-9.94,13.71-13.5,16.28-12.09,8.75-25.17,9.07-30.1,9.19h0C95,197.46,94.23,197.48,93.29,197.48Z"/><g class="cls-3"><path class="cls-1" d="M70.69,149.65A43.35,43.35,0,0,1,82,145.74a53.39,53.39,0,0,1,12-1.06,56.57,56.57,0,0,1,12,1.56,49.72,49.72,0,0,1,11.27,4.12c-3.89-.89-7.75-1.69-11.63-2.27a97.4,97.4,0,0,0-11.66-1,87.79,87.79,0,0,0-11.68.5A101.1,101.1,0,0,0,70.69,149.65Z"/></g><g class="cls-3"><path class="cls-1" d="M74.38,154.88A31.32,31.32,0,0,1,83.53,151a37.07,37.07,0,0,1,10-1.12,39.26,39.26,0,0,1,9.89,1.5,35.8,35.8,0,0,1,9.1,4,96.86,96.86,0,0,0-9.49-2.29,62.85,62.85,0,0,0-9.56-1,55.81,55.81,0,0,0-9.57.6A71.06,71.06,0,0,0,74.38,154.88Z"/></g><g class="cls-3"><path class="cls-1" d="M117.3,178A43.35,43.35,0,0,1,106,181.93a53.39,53.39,0,0,1-12,1.06,56.57,56.57,0,0,1-12-1.56,49.72,49.72,0,0,1-11.27-4.12c3.89.89,7.75,1.69,11.63,2.27a97.4,97.4,0,0,0,11.66,1,87.79,87.79,0,0,0,11.68-.5A102.91,102.91,0,0,0,117.3,178Z"/></g><g class="cls-3"><path class="cls-1" d="M113.61,172.78a31.32,31.32,0,0,1-9.15,3.85,37.07,37.07,0,0,1-9.95,1.12,39.26,39.26,0,0,1-9.89-1.5,35.8,35.8,0,0,1-9.1-3.95A96.86,96.86,0,0,0,85,174.59a62.85,62.85,0,0,0,9.56,1,55.81,55.81,0,0,0,9.57-.6A69.19,69.19,0,0,0,113.61,172.78Z"/></g><path class="cls-4" d="M194.34,369.58H356.61a14.94,14.94,0,0,0,14.94-14.94V165.21a14.94,14.94,0,0,0-14.94-14.94H194.34a14.94,14.94,0,0,0-14.94,14.94V354.64A14.94,14.94,0,0,0,194.34,369.58Z"/><line class="cls-5" x1="189.81" y1="191.85" x2="357.9" y2="191.85"/><path class="cls-6" d="M357.9,189.94h-168a2,2,0,0,0-1.94,1.43,1.9,1.9,0,0,0,1.84,2.37h168a2,2,0,0,0,1.94-1.43A1.9,1.9,0,0,0,357.9,189.94Z"/><path class="cls-4" d="M276.68,215.83a63.67,63.67,0,1,0,62.45,62.45A63.68,63.68,0,0,0,276.68,215.83Z"/><path class="cls-6" d="M278.56,213.72a65.85,65.85,0,1,0,62.69,62.69A65.91,65.91,0,0,0,278.56,213.72Zm-.2,127.2a61.5,61.5,0,1,1,58.54-58.55A61.57,61.57,0,0,1,278.36,340.92Z"/><path class="cls-6" d="M277.17,227.65a51.87,51.87,0,1,0,50.14,50.15A51.87,51.87,0,0,0,277.17,227.65Z"/><path class="cls-2" d="M351.51,162.71H312.62a2.3,2.3,0,0,0-2.3,2.3v12a2.3,2.3,0,0,0,2.3,2.3h38.89a2.3,2.3,0,0,0,2.3-2.3V165A2.3,2.3,0,0,0,351.51,162.71Z"/><path class="cls-4" d="M299.25,267.43l-1.2-.72a7.17,7.17,0,0,0-7.32,0l-4.31,2.76a3.54,3.54,0,0,1-3.36,0l-3.81-2.59a7.18,7.18,0,0,0-7.49,0l-4.05,2.67a3.56,3.56,0,0,1-3.34,0L260,266.71a7.19,7.19,0,0,0-7.36,0l-1,.66-2.42-11.51-3.62.76,9.78,46.45h40.12l9.78-46.45-3.62-.76Zm-6.73,32h-34.1l-5.91-28.09,2.2-1.48a3.55,3.55,0,0,1,3.32,0l4.35,2.79a7.14,7.14,0,0,0,7.37,0l4.05-2.67a3.53,3.53,0,0,1,3.37,0l3.81,2.59a7.22,7.22,0,0,0,7.44.08l4.31-2.76a3.56,3.56,0,0,1,3.37,0l2.34,1.4Z"/><path class="cls-4" d="M263.86,282.09a3.79,3.79,0,1,0,3.79,3.79A3.79,3.79,0,0,0,263.86,282.09Z"/><path class="cls-4" d="M275.47,282.09a3.79,3.79,0,1,0,3.79,3.79A3.79,3.79,0,0,0,275.47,282.09Z"/><path class="cls-4" d="M287.08,282.09a3.79,3.79,0,1,0,3.79,3.79A3.79,3.79,0,0,0,287.08,282.09Z"/><path class="cls-4" d="M322.9,260.57a6.3,6.3,0,0,0-6.3,6.3v25.24a6.3,6.3,0,0,0,12.6,0V266.87A6.3,6.3,0,0,0,322.9,260.57Z"/><path class="cls-6" d="M322.9,258.64a8.24,8.24,0,0,0-8.23,8.23v25.24a8.23,8.23,0,0,0,16.46,0V266.87A8.24,8.24,0,0,0,322.9,258.64Zm4.38,33.47a4.38,4.38,0,0,1-8.76,0V266.87a4.38,4.38,0,0,1,8.76,0Z"/><path class="cls-2" d="M275.47,159.18A11.84,11.84,0,1,0,287.31,171,11.85,11.85,0,0,0,275.47,159.18Zm0,20.1a8.26,8.26,0,1,1,8.26-8.26A8.27,8.27,0,0,1,275.47,179.28Z"/><rect class="cls-6" x="231.42" y="158.91" width="3.21" height="33.21"/><path class="cls-2" d="M218.51,168.33h-24a2.69,2.69,0,0,0,0,5.38h24a2.69,2.69,0,0,0,0-5.38Z"/><path class="cls-7" d="M160.54,272.27v88.4a7.83,7.83,0,0,1-7.84,7.82H74.06a7.82,7.82,0,0,1-7.82-7.82V284.4a12.46,12.46,0,0,1,3.41-7.93l4.46-4.2Z"/><path class="cls-8" d="M160.54,244.06v28.21H74.11l4.29-4L93.55,254l15.37-14.5a13.58,13.58,0,0,1,8.11-3.23h35.68A7.83,7.83,0,0,1,160.54,244.06ZM151.28,251v-6.71a1.57,1.57,0,0,0-1.56-1.56H122.58a13.78,13.78,0,0,0-8.14,3.2l-3.69,3.44c-1.89,1.77-1.34,3.2,1.26,3.2h37.71A1.57,1.57,0,0,0,151.28,251Z"/><path class="cls-9" d="M76.74,235l7.06,7.69-16,14.7-7.06-7.69c-1.46-1.59-1.58-3.84-.27-5l5.64-5.19,5.66-5.18C73.06,233.13,75.29,233.45,76.74,235Z"/><path class="cls-10" d="M93.23,248.88a1.79,1.79,0,0,1,.14,2.51l-1.28,1.17-7.63,7-7.79,7.15-1.09,1a1.78,1.78,0,0,1-2.49-.35L67,260.75a1.72,1.72,0,0,1-.29-2.37l1-.95,16-14.7,1-.95a1.72,1.72,0,0,1,2.34.48Z"/><path class="cls-4" d="M74.82,264.55a.75.75,0,0,1-.55-.24l-4.6-5a.75.75,0,1,1,1.11-1l4.6,5a.75.75,0,0,1,0,1.06A.83.83,0,0,1,74.82,264.55Z"/><path class="cls-4" d="M77.76,261.84a.75.75,0,0,1-.55-.24l-4.59-5a.75.75,0,1,1,1.11-1l4.59,5a.74.74,0,0,1-.56,1.25Z"/><path class="cls-4" d="M80.71,259.15a.75.75,0,0,1-.55-.24l-4.59-5a.75.75,0,0,1,1.11-1l4.59,5a.75.75,0,0,1,0,1.06A.83.83,0,0,1,80.71,259.15Z"/><path class="cls-4" d="M83.65,256.44a.75.75,0,0,1-.55-.24l-4.59-5a.75.75,0,1,1,1.11-1l4.59,5a.75.75,0,0,1,0,1.06A.77.77,0,0,1,83.65,256.44Z"/><path class="cls-4" d="M86.59,253.75a.75.75,0,0,1-.55-.24l-4.59-5a.75.75,0,1,1,1.11-1l4.59,5a.75.75,0,0,1-.05,1.06A.8.8,0,0,1,86.59,253.75Z"/><path class="cls-4" d="M89.54,251a.75.75,0,0,1-.55-.24l-4.59-5a.75.75,0,1,1,1.11-1l4.59,5a.75.75,0,0,1,0,1.06A.77.77,0,0,1,89.54,251Z"/><path class="cls-4" d="M80.59,291.61a3.68,3.68,0,0,1,1.9,1.42,5,5,0,0,1,.8,1.8,8.75,8.75,0,0,1,.21,1.85,7.42,7.42,0,0,1-.9,3.78,4,4,0,0,1-3.75,2.09H74V291.37h4.82A5.37,5.37,0,0,1,80.59,291.61ZM76.3,293.3v7.29h2.16A2.33,2.33,0,0,0,80.77,299a5.72,5.72,0,0,0,.36-2.13,5.2,5.2,0,0,0-.54-2.62,2.26,2.26,0,0,0-2.13-.91Z"/><path class="cls-4" d="M90.46,294.44a3.43,3.43,0,0,1,1.43,1.22,4,4,0,0,1,.66,1.71,10.47,10.47,0,0,1,.07,1.64h-6a2,2,0,0,0,.86,1.74,2.18,2.18,0,0,0,1.19.31,1.85,1.85,0,0,0,1.2-.38,1.73,1.73,0,0,0,.44-.57H92.5a2.72,2.72,0,0,1-.8,1.49,4,4,0,0,1-3.11,1.21,4.49,4.49,0,0,1-2.91-1,4,4,0,0,1-1.26-3.31,4.46,4.46,0,0,1,1.14-3.29,4,4,0,0,1,3-1.15A5,5,0,0,1,90.46,294.44Zm-3.23,1.87a2.21,2.21,0,0,0-.58,1.28h3.72a1.81,1.81,0,0,0-.58-1.31,1.87,1.87,0,0,0-1.28-.45A1.74,1.74,0,0,0,87.23,296.31Z"/><path class="cls-4" d="M92.87,295.89v-1.54H94V292h2.14v2.31H97.5v1.54H96.16v4.37c0,.34,0,.55.13.63a1.45,1.45,0,0,0,.79.13h.43v1.62l-1,0a2.71,2.71,0,0,1-2.09-.53A1.59,1.59,0,0,1,94,301v-5.09H92.87Z"/><path class="cls-4" d="M104.27,294.44a3.43,3.43,0,0,1,1.43,1.22,4,4,0,0,1,.66,1.71,10.47,10.47,0,0,1,.07,1.64h-6a2,2,0,0,0,.86,1.74,2.18,2.18,0,0,0,1.19.31,1.85,1.85,0,0,0,1.2-.38,1.73,1.73,0,0,0,.44-.57h2.21a2.72,2.72,0,0,1-.8,1.49,4,4,0,0,1-3.11,1.21,4.49,4.49,0,0,1-2.91-1,4,4,0,0,1-1.26-3.31,4.46,4.46,0,0,1,1.14-3.29,4,4,0,0,1,3-1.15A5,5,0,0,1,104.27,294.44ZM101,296.31a2.21,2.21,0,0,0-.58,1.28h3.72a1.81,1.81,0,0,0-.58-1.31,1.87,1.87,0,0,0-1.28-.45A1.71,1.71,0,0,0,101,296.31Z"/><path class="cls-4" d="M112.11,294.08h.19v2.21l-.36,0h-.26a1.78,1.78,0,0,0-1.75.85,3.27,3.27,0,0,0-.25,1.47v3.95H107.5v-8.27h2.06v1.44a4.41,4.41,0,0,1,.87-1.13,2.36,2.36,0,0,1,1.58-.51A.22.22,0,0,0,112.11,294.08Z"/><path class="cls-4" d="M117.65,294.27a2.62,2.62,0,0,1,1.27,1.2v-1.19H121v7.84a4.37,4.37,0,0,1-.54,2.41c-.62.93-1.8,1.4-3.55,1.4a4.89,4.89,0,0,1-2.59-.62,2.28,2.28,0,0,1-1.11-1.86h2.35a1,1,0,0,0,.3.55,1.8,1.8,0,0,0,1.18.3,1.57,1.57,0,0,0,1.56-.78,4,4,0,0,0,.26-1.68v-.53a2.75,2.75,0,0,1-.67.8,2.68,2.68,0,0,1-1.68.49,3.15,3.15,0,0,1-2.54-1.12,4.56,4.56,0,0,1-1-3,5.13,5.13,0,0,1,.92-3.1,3,3,0,0,1,2.6-1.25A2.41,2.41,0,0,1,117.65,294.27Zm.74,5.92a2.64,2.64,0,0,0,.52-1.82,2.87,2.87,0,0,0-.49-1.79,1.61,1.61,0,0,0-1.33-.61,1.56,1.56,0,0,0-1.56,1.07,3.83,3.83,0,0,0-.23,1.4,3.21,3.21,0,0,0,.24,1.28,1.58,1.58,0,0,0,1.57,1A1.67,1.67,0,0,0,118.39,300.19Z"/><path class="cls-4" d="M128.44,294.44a3.43,3.43,0,0,1,1.43,1.22,4,4,0,0,1,.66,1.71,10.47,10.47,0,0,1,.07,1.64h-6a2,2,0,0,0,.86,1.74,2.18,2.18,0,0,0,1.19.31,1.85,1.85,0,0,0,1.2-.38,1.73,1.73,0,0,0,.44-.57h2.21a2.72,2.72,0,0,1-.8,1.49,4,4,0,0,1-3.11,1.21,4.49,4.49,0,0,1-2.91-1,4,4,0,0,1-1.26-3.31,4.46,4.46,0,0,1,1.14-3.29,4,4,0,0,1,3-1.15A5,5,0,0,1,128.44,294.44Zm-3.24,1.87a2.21,2.21,0,0,0-.58,1.28h3.72a1.81,1.81,0,0,0-.58-1.31,1.87,1.87,0,0,0-1.28-.45A1.74,1.74,0,0,0,125.2,296.31Z"/><path class="cls-4" d="M138.35,294.75a2.75,2.75,0,0,1,.81,2.23v5.57H137v-5a2.4,2.4,0,0,0-.17-1,1.22,1.22,0,0,0-1.2-.64,1.49,1.49,0,0,0-1.5.93,3.25,3.25,0,0,0-.21,1.26v4.47h-2.16v-8.25h2.09v1.21a3.83,3.83,0,0,1,.79-.92,2.73,2.73,0,0,1,1.68-.5A3.13,3.13,0,0,1,138.35,294.75Z"/><path class="cls-4" d="M140.33,295.89v-1.54h1.15V292h2.14v2.31H145v1.54h-1.34v4.37c0,.34,0,.55.13.63a1.45,1.45,0,0,0,.79.13H145v1.62l-1,0a2.71,2.71,0,0,1-2.09-.53,1.59,1.59,0,0,1-.36-1.14v-5.09h-1.17Z"/><path class="cls-4" d="M151.73,294.44a3.43,3.43,0,0,1,1.43,1.22,4,4,0,0,1,.66,1.71,10.47,10.47,0,0,1,.07,1.64h-6a2,2,0,0,0,.86,1.74,2.18,2.18,0,0,0,1.19.31,1.85,1.85,0,0,0,1.2-.38,1.73,1.73,0,0,0,.44-.57h2.21a2.72,2.72,0,0,1-.8,1.49,4,4,0,0,1-3.11,1.21,4.49,4.49,0,0,1-2.91-1,4,4,0,0,1-1.26-3.31,4.46,4.46,0,0,1,1.14-3.29,4,4,0,0,1,3-1.15A5,5,0,0,1,151.73,294.44Zm-3.23,1.87a2.21,2.21,0,0,0-.58,1.28h3.72a1.81,1.81,0,0,0-.58-1.31,1.87,1.87,0,0,0-1.28-.45A1.71,1.71,0,0,0,148.5,296.31Z"/><path class="cls-6" d="M93.12,73.5h0a3.34,3.34,0,0,0,3.33,3.34l15.55,0a3.34,3.34,0,0,0,3.34-3.33h0A3.34,3.34,0,0,0,112,70.19l-15.55,0A3.34,3.34,0,0,0,93.12,73.5Z"/><path class="cls-6" d="M48.69,73.44h0A3.34,3.34,0,0,0,52,76.78l15.55,0a3.34,3.34,0,0,0,3.34-3.33h0a3.34,3.34,0,0,0-3.33-3.34L52,70.11A3.33,3.33,0,0,0,48.69,73.44Z"/><path class="cls-6" d="M182,73.62h0A3.34,3.34,0,0,0,185.32,77l15.55,0a3.34,3.34,0,0,0,3.34-3.33h0a3.34,3.34,0,0,0-3.33-3.34l-15.55,0A3.33,3.33,0,0,0,182,73.62Z"/><path class="cls-6" d="M4.25,73.38h0a3.34,3.34,0,0,0,3.33,3.34l15.55,0a3.34,3.34,0,0,0,3.34-3.33h0a3.34,3.34,0,0,0-3.33-3.34l-15.55,0A3.34,3.34,0,0,0,4.25,73.38Z"/><path class="cls-6" d="M137.55,73.56h0a3.34,3.34,0,0,0,3.33,3.34l15.55,0a3.34,3.34,0,0,0,3.34-3.33h0a3.34,3.34,0,0,0-3.33-3.34l-15.55,0A3.34,3.34,0,0,0,137.55,73.56Z"/><path class="cls-6" d="M359.73,73.85h0a3.34,3.34,0,0,0,3.33,3.34l15.55,0A3.34,3.34,0,0,0,382,73.88h0a3.34,3.34,0,0,0-3.33-3.34l-15.55,0A3.33,3.33,0,0,0,359.73,73.85Z"/><path class="cls-6" d="M315.29,73.79h0a3.34,3.34,0,0,0,3.33,3.34l15.55,0a3.34,3.34,0,0,0,3.34-3.33h0a3.34,3.34,0,0,0-3.33-3.34l-15.55,0A3.34,3.34,0,0,0,315.29,73.79Z"/><path class="cls-6" d="M226.42,73.68h0A3.34,3.34,0,0,0,229.75,77l15.55,0a3.34,3.34,0,0,0,3.34-3.33h0a3.34,3.34,0,0,0-3.33-3.34l-15.55,0A3.34,3.34,0,0,0,226.42,73.68Z"/><path class="cls-6" d="M270.86,73.74h0a3.34,3.34,0,0,0,3.33,3.34l15.55,0a3.34,3.34,0,0,0,3.34-3.33h0a3.34,3.34,0,0,0-3.33-3.34l-15.55,0A3.32,3.32,0,0,0,270.86,73.74Z"/><path class="cls-6" d="M26.76,23.65a10.68,10.68,0,0,1,8-3.2q6.47,0,9.46,4.29A9.37,9.37,0,0,1,46,29.57H40.54a7.29,7.29,0,0,0-1.33-2.81,5.34,5.34,0,0,0-4.29-1.69,5.27,5.27,0,0,0-4.56,2.38,11.65,11.65,0,0,0-1.67,6.74c0,2.91.59,5.08,1.76,6.53a5.51,5.51,0,0,0,4.48,2.17A5.09,5.09,0,0,0,39.18,41a8.08,8.08,0,0,0,1.34-3H45.9a11.65,11.65,0,0,1-3.56,6.89A10.35,10.35,0,0,1,35,47.56,11,11,0,0,1,26.31,44q-3.16-3.6-3.17-9.88C23.16,29.59,24.36,26.1,26.76,23.65Z"/><path class="cls-6" d="M55,25.41H50V20.79H55ZM50,27.69H55V46.85H50Z"/><path class="cls-6" d="M71.35,34.57a4.35,4.35,0,0,0-.72-1.93A3,3,0,0,0,68,31.48,3.46,3.46,0,0,0,64.54,34a10.42,10.42,0,0,0-.49,3.54,9.55,9.55,0,0,0,.49,3.38,3.36,3.36,0,0,0,3.38,2.39,3,3,0,0,0,2.5-.95,4.76,4.76,0,0,0,.9-2.46h5.12a8.44,8.44,0,0,1-1.65,4.32,8,8,0,0,1-7,3.29c-3.09,0-5.35-.91-6.81-2.74a11.11,11.11,0,0,1-2.18-7.11c0-3.29.8-5.84,2.41-7.67a8.38,8.38,0,0,1,6.65-2.74,10,10,0,0,1,5.9,1.62q2.3,1.62,2.72,5.71Z"/><path class="cls-6" d="M85,46.85H80V20.94h5Z"/><path class="cls-6" d="M105.89,44.51c-1.62,2-4.07,3-7.37,3s-5.75-1-7.37-3a11.09,11.09,0,0,1-2.43-7.21,11.14,11.14,0,0,1,2.43-7.18c1.62-2,4.07-3,7.37-3s5.75,1,7.37,3a11.16,11.16,0,0,1,2.43,7.18A11.2,11.2,0,0,1,105.89,44.51Zm-4-2.77a7.22,7.22,0,0,0,1.18-4.44,7.17,7.17,0,0,0-1.18-4.43,4.46,4.46,0,0,0-6.76,0,7.19,7.19,0,0,0-1.19,4.43,7.22,7.22,0,0,0,1.19,4.44,4.44,4.44,0,0,0,6.76,0Z"/><path class="cls-6" d="M122.22,20.94h5.68L138.19,39V20.94h5V46.85h-5.41L127.27,28.47V46.85h-5V20.94Z"/><path class="cls-6" d="M163.88,44.51c-1.62,2-4.07,3-7.37,3s-5.75-1-7.37-3a11.09,11.09,0,0,1-2.43-7.21,11.14,11.14,0,0,1,2.43-7.18c1.62-2,4.07-3,7.37-3s5.75,1,7.37,3a11.16,11.16,0,0,1,2.43,7.18A11.2,11.2,0,0,1,163.88,44.51Zm-4-2.77a7.22,7.22,0,0,0,1.18-4.44,7.17,7.17,0,0,0-1.18-4.43,4.46,4.46,0,0,0-6.76,0,7.19,7.19,0,0,0-1.19,4.43,7.22,7.22,0,0,0,1.19,4.44,4.44,4.44,0,0,0,6.76,0Z"/><path class="cls-6" d="M180.53,27.24l.43,0V32.4c-.32,0-.6-.06-.84-.07l-.6,0q-3,0-4.06,2a7.63,7.63,0,0,0-.58,3.41v9.16h-5V27.69h4.78V31a10.59,10.59,0,0,1,2-2.62,5.49,5.49,0,0,1,3.66-1.18Z"/><path class="cls-6" d="M207.81,27.76a5.6,5.6,0,0,1,3.32,4.18,16.6,16.6,0,0,1,.18,2.83l0,12.08h-5.13V34.65a4,4,0,0,0-.35-1.79,2.51,2.51,0,0,0-2.46-1.34,2.89,2.89,0,0,0-2.87,1.72,5.41,5.41,0,0,0-.4,2.2V46.85h-5V35.44a6.51,6.51,0,0,0-.35-2.48,2.45,2.45,0,0,0-2.48-1.39A2.94,2.94,0,0,0,189.31,33a5.36,5.36,0,0,0-.4,2.36V46.85h-5.08V27.73h4.87v2.79a8,8,0,0,1,1.76-2.13,6,6,0,0,1,3.78-1.12,5.94,5.94,0,0,1,3.55,1,5.6,5.6,0,0,1,1.65,2.3,6.46,6.46,0,0,1,2.44-2.48,7.43,7.43,0,0,1,3.45-.79A6.68,6.68,0,0,1,207.81,27.76Z"/><path class="cls-6" d="M223.5,35.2a7.86,7.86,0,0,0,2-.44,1.5,1.5,0,0,0,1.08-1.42,1.69,1.69,0,0,0-.83-1.63,5.2,5.2,0,0,0-2.43-.45,3.19,3.19,0,0,0-2.55.88,3.59,3.59,0,0,0-.71,1.76h-4.83a7.39,7.39,0,0,1,1.41-4.13q2-2.53,6.85-2.53a12.2,12.2,0,0,1,5.61,1.25q2.44,1.25,2.45,4.71V42c0,.61,0,1.35,0,2.21a2.79,2.79,0,0,0,.3,1.34,1.76,1.76,0,0,0,.74.58v.74h-5.45a6,6,0,0,1-.32-1.09,11.19,11.19,0,0,1-.14-1.16,10.67,10.67,0,0,1-2.4,1.92,7.27,7.27,0,0,1-3.68.93A6.32,6.32,0,0,1,216.32,46a5.3,5.3,0,0,1-1.71-4.21,5.47,5.47,0,0,1,2.75-5.12,12.41,12.41,0,0,1,4.43-1.23Zm3.06,2.34a5.14,5.14,0,0,1-1,.48,8,8,0,0,1-1.34.34l-1.14.21a7.45,7.45,0,0,0-2.3.69,2.29,2.29,0,0,0-1.18,2.13,2.21,2.21,0,0,0,.72,1.85,2.75,2.75,0,0,0,1.76.57,5.25,5.25,0,0,0,3-1,4,4,0,0,0,1.44-3.46V37.54Z"/><path class="cls-6" d="M241.05,46.85h-5V20.94h5Z"/></g></g></svg>