<svg xmlns="http://www.w3.org/2000/svg" viewBox="0 0 385.91 385.61"><defs><style>.cls-1{fill:#dfedfe;}.cls-2{fill:#0166d0;}.cls-3{opacity:0.18;}.cls-4{fill:#fff;}.cls-5{fill:#f1f1f1;}.cls-6{fill:#1e3e65;}.cls-7{fill:#44bbef;opacity:0.5;isolation:isolate;}.cls-8{fill:#73a847;}.cls-9{fill:#3a91b2;}.cls-10{fill:#349aa9;}</style></defs><g id="Capa_2" data-name="Capa 2"><g id="Layer_1" data-name="Layer 1"><rect class="cls-1" width="385.91" height="385.61"/><path class="cls-2" d="M160.53,161.88a127.85,127.85,0,0,1-25.31-19.58q-3.27-3.27-6.3-6.77a1.74,1.74,0,0,0-2.43,0,1.76,1.76,0,0,0,0,2.43A131,131,0,0,0,151,159.87q3.81,2.63,7.79,5a1.72,1.72,0,0,0,1.74-3Z"/><path class="cls-2" d="M159.67,165.43a2,2,0,0,1-1-.3c-2.69-1.59-5.32-3.27-7.81-5a131.22,131.22,0,0,1-24.57-22,2.07,2.07,0,0,1,0-2.88,2.16,2.16,0,0,1,1.57-.59,1.88,1.88,0,0,1,1.35.61c2,2.35,4.15,4.62,6.29,6.75a127.21,127.21,0,0,0,25.24,19.53h0a1.87,1.87,0,0,1,1,1.69,2.28,2.28,0,0,1-1.12,1.9A2,2,0,0,1,159.67,165.43Zm-31.91-30.07a1.46,1.46,0,0,0-1,.4,1.43,1.43,0,0,0,0,2,130.94,130.94,0,0,0,24.45,21.86c2.48,1.71,5.1,3.38,7.77,5a1.23,1.23,0,0,0,1.27,0,1.59,1.59,0,0,0,.78-1.32,1.25,1.25,0,0,0-.66-1.11h0A127.62,127.62,0,0,1,135,142.53c-2.14-2.14-4.27-4.42-6.32-6.78a1.17,1.17,0,0,0-.86-.38Z"/><path class="cls-2" d="M156.68,193.21a58.82,58.82,0,0,1-25.89,8.24,1.77,1.77,0,0,0-1.72,1.72,1.74,1.74,0,0,0,1.72,1.72,62.49,62.49,0,0,0,27.63-8.71c1.88-1.15.16-4.11-1.74-3Z"/><path class="cls-2" d="M130.69,205.22a1.86,1.86,0,0,1-1.26-.52,2.13,2.13,0,0,1-.7-1.53,2.07,2.07,0,0,1,2-2,58.67,58.67,0,0,0,25.75-8.19h0a1.93,1.93,0,0,1,2.73.72,2,2,0,0,1-.66,2.82,63.23,63.23,0,0,1-27.78,8.76Zm26.17-11.72a59.3,59.3,0,0,1-26,8.29,1.42,1.42,0,0,0-1.4,1.38,1.45,1.45,0,0,0,.48,1,1.14,1.14,0,0,0,.87.34,62.44,62.44,0,0,0,27.48-8.66,1.32,1.32,0,0,0,.43-1.89,1.26,1.26,0,0,0-1.82-.5Z"/><path class="cls-2" d="M226,161.88a127.85,127.85,0,0,0,25.31-19.58q3.27-3.27,6.3-6.77a1.74,1.74,0,0,1,2.43,0,1.76,1.76,0,0,1,0,2.43,131,131,0,0,1-24.51,21.91q-3.81,2.63-7.79,5a1.72,1.72,0,0,1-1.74-3Z"/><path class="cls-2" d="M226.84,165.42a2,2,0,0,1-1.72-1,2,2,0,0,1,.68-2.79h0A127.21,127.21,0,0,0,251,142.06c2.13-2.13,4.25-4.4,6.29-6.75a1.86,1.86,0,0,1,1.34-.61,2.12,2.12,0,0,1,1.57.59,2.07,2.07,0,0,1,0,2.88,131.22,131.22,0,0,1-24.57,22c-2.5,1.72-5.13,3.4-7.81,5A2.13,2.13,0,0,1,226.84,165.42Zm-.7-3.25a1.3,1.3,0,0,0-.44,1.87,1.28,1.28,0,0,0,1.83.51c2.67-1.58,5.29-3.25,7.77-5a130.59,130.59,0,0,0,24.45-21.86,1.43,1.43,0,0,0,0-2,1.5,1.5,0,0,0-1.07-.4,1.17,1.17,0,0,0-.86.38c-2,2.36-4.18,4.64-6.32,6.78a127.93,127.93,0,0,1-25.38,19.65Z"/><path class="cls-2" d="M229.82,193.21a58.82,58.82,0,0,0,25.89,8.24,1.77,1.77,0,0,1,1.72,1.72,1.74,1.74,0,0,1-1.72,1.72,62.49,62.49,0,0,1-27.63-8.71c-1.88-1.15-.16-4.11,1.74-3Z"/><path class="cls-2" d="M255.81,205.22h-.12a63.06,63.06,0,0,1-27.77-8.76,1.9,1.9,0,0,1-1-1.71,2.28,2.28,0,0,1,1.13-1.9,1.86,1.86,0,0,1,1.93.07h0a58.54,58.54,0,0,0,25.75,8.19,2.09,2.09,0,0,1,2,2,2.11,2.11,0,0,1-.7,1.53A1.85,1.85,0,0,1,255.81,205.22ZM229,193.29a1.2,1.2,0,0,0-.57.15,1.58,1.58,0,0,0-.78,1.32,1.21,1.21,0,0,0,.66,1.12,62.44,62.44,0,0,0,27.48,8.66,1.11,1.11,0,0,0,.87-.34,1.47,1.47,0,0,0,.48-1,1.43,1.43,0,0,0-1.4-1.38,59.13,59.13,0,0,1-26-8.29A1.37,1.37,0,0,0,229,193.29Z"/><path class="cls-2" d="M194.63,213.1c-5.18.13-18,.27-30.35-7.72A37.16,37.16,0,0,1,153,194.83c-.22-.32-.59-.86-1-1.57-.83-1.33-8.4-13.62-4.22-25,2.55-6.93,8.43-10.58,14.39-14.29,5.39-3.35,5.87-2.11,14-6.77,6.77-3.87,8.19-5.73,13.12-7a21.21,21.21,0,0,1,11.58,0c3.69,1.16,4.84,2.87,8.62,5.6,8.41,6.08,11.19,3.75,18.29,8.92,2.57,1.86,7.87,5.72,10.54,12.8,3.13,8.32.89,16.45.28,18.42-.24.78-.47,1.4-.62,1.82-3.23,8.65-9.48,13.3-13.38,16.12C212.79,212.48,200.27,213,194.63,213.1Z"/><path class="cls-2" d="M192.29,213.48c-5.8,0-17.28-.74-28.2-7.81A37.26,37.26,0,0,1,152.68,195c-.23-.34-.59-.87-1-1.59-1.42-2.28-8.33-14.19-4.25-25.25,2.59-7,8.66-10.81,14.53-14.46a28.31,28.31,0,0,1,5.79-2.83A50.17,50.17,0,0,0,176,147c2.21-1.27,3.82-2.29,5.24-3.2,2.87-1.84,4.61-2.95,8-3.78a21.68,21.68,0,0,1,11.76,0,16,16,0,0,1,5.93,3.48c.79.64,1.68,1.36,2.79,2.17a29.43,29.43,0,0,0,9.85,4.85,25.1,25.1,0,0,1,8.44,4.07c2.58,1.88,7.95,5.78,10.66,13,3.09,8.19,1,16.33.29,18.63-.24.77-.46,1.39-.63,1.84-3.33,8.93-9.94,13.71-13.5,16.28-12.09,8.75-25.17,9.07-30.1,9.19h0Z"/><g class="cls-3"><path class="cls-1" d="M169.69,165.65A43.35,43.35,0,0,1,181,161.74a53.39,53.39,0,0,1,12-1.06,56.57,56.57,0,0,1,12,1.56,49.72,49.72,0,0,1,11.27,4.12c-3.89-.89-7.75-1.69-11.63-2.27a97.4,97.4,0,0,0-11.66-1,87.79,87.79,0,0,0-11.68.5A101.1,101.1,0,0,0,169.69,165.65Z"/></g><g class="cls-3"><path class="cls-1" d="M173.38,170.88a31.32,31.32,0,0,1,9.15-3.85,37.07,37.07,0,0,1,9.95-1.12,39.26,39.26,0,0,1,9.89,1.5,35.8,35.8,0,0,1,9.1,4,96.86,96.86,0,0,0-9.49-2.29,62.85,62.85,0,0,0-9.56-1,55.81,55.81,0,0,0-9.57.6A71.06,71.06,0,0,0,173.38,170.88Z"/></g><g class="cls-3"><path class="cls-1" d="M216.3,194A43.35,43.35,0,0,1,205,197.93a53.39,53.39,0,0,1-12,1.06,56.57,56.57,0,0,1-12-1.56,49.72,49.72,0,0,1-11.27-4.12c3.89.89,7.75,1.69,11.63,2.27a97.4,97.4,0,0,0,11.66,1,87.79,87.79,0,0,0,11.68-.5A102.91,102.91,0,0,0,216.3,194Z"/></g><g class="cls-3"><path class="cls-1" d="M212.61,188.78a31.32,31.32,0,0,1-9.15,3.85,37.07,37.07,0,0,1-10,1.12,39.26,39.26,0,0,1-9.89-1.5,35.8,35.8,0,0,1-9.1-3.95,96.86,96.86,0,0,0,9.49,2.29,62.85,62.85,0,0,0,9.56,1,55.81,55.81,0,0,0,9.57-.6A69.19,69.19,0,0,0,212.61,188.78Z"/></g><path class="cls-4" d="M336,337.05c-.84,8.56-1.7,16-2.37,21.45a11.56,11.56,0,0,1-11.5,10.15H268.74a11.59,11.59,0,0,1-11.51-10.17c-3.51-28.59-11.92-109.22,1.32-134.68,16.2-31.17,23.67-85.29,23.67-85.29h26.43s7.47,54.12,23.67,85.29c2.95,5.62,4.79,14,5.92,23.83C341.15,273.83,338.63,310.86,336,337.05Z"/><path class="cls-5" d="M270.75,358.48c-3.51-28.59-11.92-109.22,1.32-134.68,16.2-31.17,23.67-85.3,23.67-85.3H282.22s-7.47,54.12-23.67,85.3c-13.24,25.46-4.84,106.09-1.32,134.68a11.58,11.58,0,0,0,11.51,10.17h13.52A11.58,11.58,0,0,1,270.75,358.48Z"/><path class="cls-6" d="M336,337.05H278.4V247.63h59.85C341.15,273.83,338.63,310.86,336,337.05Z"/><rect class="cls-6" x="278.41" y="131.95" width="34.06" height="16.15"/><rect class="cls-7" x="278.41" y="131.95" width="9.18" height="16.15"/><path class="cls-4" d="M279.18,312.4l2.6-3.85,15.11,10.2,6.21-9.2,3.31,2.24-8.81,13Z"/><path class="cls-4" d="M300.61,291.61a6.72,6.72,0,0,1,3.6-1,8,8,0,0,1,3.55.82,21.38,21.38,0,0,1,2.78,1.71l-6.7,9.92a4,4,0,0,0,3.84.52,4.33,4.33,0,0,0,1.84-1.62,3.64,3.64,0,0,0,.71-2.4,3.82,3.82,0,0,0-.44-1.37l2.45-3.64a5.38,5.38,0,0,1,1.57,3,8,8,0,0,1-1.47,6.46,9,9,0,0,1-4.92,3.67q-3.07.94-6.86-1.6-3.54-2.38-4.16-5.54a8,8,0,0,1,1.4-6.15A9.36,9.36,0,0,1,300.61,291.61Zm-.52,7.4a4.49,4.49,0,0,0,1.47,2.37l4.14-6.13a3.58,3.58,0,0,0-2.79-.5,3.8,3.8,0,0,0-2.16,1.62A3.36,3.36,0,0,0,300.09,299Z"/><path class="cls-4" d="M319.13,298.57l.32-.4.16-.22a1.32,1.32,0,0,0,.28-1,1.67,1.67,0,0,0-.81-.94l-15-10.1,2.4-3.56,15,10.14a5.76,5.76,0,0,1,2.5,2.87c.29,1-.1,2.27-1.16,3.85-.07.11-.19.27-.34.47l-.56.78Zm-14.29-17.33-2.4,3.56-3.29-2.22,2.4-3.56Z"/><path class="cls-4" d="M309.6,274.2l-2.44,3.61-3.29-2.22,2.44-3.61Zm-.82,4.7,2.44-3.61,13.62,9.2-2.44,3.61Z"/><path class="cls-4" d="M322.53,270.05a7.12,7.12,0,0,0,.65-1.63,1.3,1.3,0,0,0-.49-1.45,1.43,1.43,0,0,0-1.55-.19,4.53,4.53,0,0,0-1.49,1.51,2.71,2.71,0,0,0-.6,2.23,3.14,3.14,0,0,0,.91,1.35l-2.32,3.44a6.29,6.29,0,0,1-2.26-3c-.56-1.76-.06-3.78,1.49-6.08a10.37,10.37,0,0,1,3.58-3.39q2.07-1.14,4.53.52l6.25,4.22c.43.29,1,.64,1.59,1a2.44,2.44,0,0,0,1.09.43,1.52,1.52,0,0,0,.77-.25l.52.35L332.58,273a5.08,5.08,0,0,1-.93-.3,8.51,8.51,0,0,1-.89-.46,8.87,8.87,0,0,1,.21,2.63,6.28,6.28,0,0,1-1.1,3.06,5.44,5.44,0,0,1-3.13,2.36,4.55,4.55,0,0,1-3.81-.81,4.69,4.69,0,0,1-2.32-4.41,10.49,10.49,0,0,1,1.25-3.74Zm3.13-1.05a4.54,4.54,0,0,1-.12.92,7.12,7.12,0,0,1-.4,1.12l-.4.91a6.4,6.4,0,0,0-.62,2,2,2,0,0,0,.94,1.86,1.9,1.9,0,0,0,1.66.38,2.37,2.37,0,0,0,1.25-1,4.53,4.53,0,0,0,.78-2.61,3.46,3.46,0,0,0-1.77-2.68Z"/><path class="cls-2" d="M172.05,244.69a7.31,7.31,0,0,0-7.31-7.31,7.45,7.45,0,0,0-2.42.41,7.91,7.91,0,0,0-14.35-.72,6.6,6.6,0,0,0-8.86,6.19,6.68,6.68,0,0,0,.42,2.33A9.82,9.82,0,0,0,146.64,261a6.43,6.43,0,0,0,11.51-1.09,9.82,9.82,0,0,0,13.48-12.84A6.75,6.75,0,0,0,172.05,244.69Z"/><path class="cls-2" d="M109.76,234.84a6,6,0,0,0-8-5.68,6.52,6.52,0,0,0-11.83-.59,5.49,5.49,0,0,0-1.87-.33,5.43,5.43,0,0,0-5.43,5.43,5.32,5.32,0,0,0,.35,1.92,8.09,8.09,0,0,0,5.86,12.71,5.3,5.3,0,0,0,9.49-.9,8,8,0,0,0,3.78.93,8.1,8.1,0,0,0,8.1-8.1,8,8,0,0,0-.76-3.42A6.08,6.08,0,0,0,109.76,234.84Z"/><path class="cls-2" d="M132.55,228.62a6,6,0,0,0-8-5.68,6.52,6.52,0,0,0-11.83-.59,5.49,5.49,0,0,0-1.87-.33,5.43,5.43,0,0,0-5.43,5.43,5.32,5.32,0,0,0,.35,1.92,8.09,8.09,0,0,0,5.86,12.71,5.3,5.3,0,0,0,9.49-.9,8,8,0,0,0,3.78.93A8.1,8.1,0,0,0,133,234a8,8,0,0,0-.76-3.42A6,6,0,0,0,132.55,228.62Z"/><path class="cls-2" d="M148.57,233.38a4.86,4.86,0,0,0-6.49-4.59,5.27,5.27,0,0,0-9.56-.48,4.39,4.39,0,0,0-5.91,4.13,4.4,4.4,0,0,0,.28,1.55,6.55,6.55,0,0,0,4.74,10.28,4.29,4.29,0,0,0,7.68-.73,6.55,6.55,0,0,0,9-8.56A4.93,4.93,0,0,0,148.57,233.38Z"/><polygon class="cls-8" points="190.79 252.26 190.24 260 84.76 260 84.21 252.26 190.79 252.26"/><path class="cls-9" d="M197.87,246v4.34a1.92,1.92,0,0,1-1.93,1.93H79.06a1.92,1.92,0,0,1-1.93-1.93V246a5.78,5.78,0,0,1,5.78-5.78H192.08A5.78,5.78,0,0,1,197.87,246Z"/><path class="cls-10" d="M85.13,250.61A4.58,4.58,0,0,1,89.71,246H196.24a4.59,4.59,0,0,0-4.58-4.57H84.41A4.58,4.58,0,0,0,79.83,246v3.44A1.52,1.52,0,0,0,81.36,251h3.77Z"/><path class="cls-10" d="M190.24,260l-6.1,87.3a16.78,16.78,0,0,1-16.5,15.39H107.36A16.78,16.78,0,0,1,90.85,347.3L84.75,260Z"/><path class="cls-6" d="M167.38,306.35a1.67,1.67,0,0,1-1.14,1.87,84.86,84.86,0,0,1-56.27,0,1.61,1.61,0,0,1-1.08-2l0-.12,3.93-8.17s0,0,0,0a1.9,1.9,0,0,1,2.4-.72c6,2.17,14.64,3.56,22.83,3.56S155,299.34,161,297.17a1.91,1.91,0,0,1,2.42.75l.09.2,3.84,8A2,2,0,0,1,167.38,306.35Z"/><path class="cls-6" d="M108.94,306.09l0,.12,0,0c-23.25-9.5-34.32-31.06-34.32-56.15,0-3.42.73-5.88,3.09-6.38a5.53,5.53,0,0,0-.5,2.32v4.34a1.92,1.92,0,0,0,1.93,1.93h.08c2.87,20.85,13.89,38,33.74,45.62,0,0,0,0,0,0Z"/><path class="cls-6" d="M201.13,250.05c0,25.21-10,46.87-33.74,56.3a2.14,2.14,0,0,0-.09-.27l-3.84-8c20.71-7.58,31.09-25,33.65-46.25a1.88,1.88,0,0,0,.76-1.54V246a5.7,5.7,0,0,0-.62-2.6l.05,0C200,243.38,201.13,244.7,201.13,250.05Z"/><path class="cls-6" d="M96.12,96.5h0a3.34,3.34,0,0,0,3.33,3.34l15.55,0a3.34,3.34,0,0,0,3.34-3.33h0A3.34,3.34,0,0,0,115,93.19l-15.55,0A3.34,3.34,0,0,0,96.12,96.5Z"/><path class="cls-6" d="M51.69,96.44h0A3.34,3.34,0,0,0,55,99.78l15.55,0a3.34,3.34,0,0,0,3.34-3.33h0a3.34,3.34,0,0,0-3.33-3.34L55,93.11A3.33,3.33,0,0,0,51.69,96.44Z"/><path class="cls-6" d="M185,96.62h0a3.34,3.34,0,0,0,3.33,3.34l15.55,0a3.34,3.34,0,0,0,3.34-3.33h0a3.34,3.34,0,0,0-3.33-3.34l-15.55,0A3.33,3.33,0,0,0,185,96.62Z"/><path class="cls-6" d="M7.25,96.38h0a3.34,3.34,0,0,0,3.33,3.34l15.55,0a3.34,3.34,0,0,0,3.34-3.33h0a3.34,3.34,0,0,0-3.33-3.34l-15.55,0A3.34,3.34,0,0,0,7.25,96.38Z"/><path class="cls-6" d="M140.55,96.56h0a3.34,3.34,0,0,0,3.33,3.34l15.55,0a3.34,3.34,0,0,0,3.34-3.33h0a3.34,3.34,0,0,0-3.33-3.34l-15.55,0A3.34,3.34,0,0,0,140.55,96.56Z"/><path class="cls-6" d="M362.73,96.85h0a3.34,3.34,0,0,0,3.33,3.34l15.55,0A3.34,3.34,0,0,0,385,96.88h0a3.34,3.34,0,0,0-3.33-3.34l-15.55,0A3.33,3.33,0,0,0,362.73,96.85Z"/><path class="cls-6" d="M318.29,96.79h0a3.34,3.34,0,0,0,3.33,3.34l15.55,0a3.34,3.34,0,0,0,3.34-3.33h0a3.34,3.34,0,0,0-3.33-3.34l-15.55,0A3.34,3.34,0,0,0,318.29,96.79Z"/><path class="cls-6" d="M229.42,96.68h0a3.34,3.34,0,0,0,3.33,3.34l15.55,0a3.34,3.34,0,0,0,3.34-3.33h0a3.34,3.34,0,0,0-3.33-3.34l-15.55,0A3.34,3.34,0,0,0,229.42,96.68Z"/><path class="cls-6" d="M273.86,96.74h0a3.34,3.34,0,0,0,3.33,3.34l15.55,0a3.34,3.34,0,0,0,3.34-3.33h0a3.34,3.34,0,0,0-3.33-3.34l-15.55,0A3.32,3.32,0,0,0,273.86,96.74Z"/><path class="cls-6" d="M14.85,29.84q1.07-2.55,5.06-5.4a37.22,37.22,0,0,0,4.48-3.55A5.25,5.25,0,0,0,26,17.23a4,4,0,0,0-.9-2.69,3.14,3.14,0,0,0-2.57-1.07,3.13,3.13,0,0,0-3.11,1.71,8.44,8.44,0,0,0-.56,3.13H13.94a12.21,12.21,0,0,1,1.18-5.26c1.34-2.54,3.71-3.81,7.13-3.81a9.06,9.06,0,0,1,6.44,2.24,7.72,7.72,0,0,1,2.39,5.93,8,8,0,0,1-1.69,5,16.83,16.83,0,0,1-3.65,3.25l-2,1.42c-1.26.89-2.12,1.54-2.58,1.93A5.61,5.61,0,0,0,20,30.43H31.11v4.41H13.65A12.31,12.31,0,0,1,14.85,29.84Z"/><path class="cls-6" d="M49.31,12.62c1.31,2.29,2,5.53,2,9.74s-.65,7.45-2,9.72-3.58,3.41-6.83,3.41S37,34.35,35.65,32.08s-2-5.51-2-9.72.65-7.45,2-9.74,3.58-3.43,6.83-3.43S48,10.33,49.31,12.62ZM39.53,29.08a3,3,0,0,0,5.88,0,24.58,24.58,0,0,0,.69-6.72,24.76,24.76,0,0,0-.69-6.82,2.83,2.83,0,0,0-2.93-2.21,2.88,2.88,0,0,0-2.95,2.21,23.73,23.73,0,0,0-.72,6.82A24,24,0,0,0,39.53,29.08Z"/><path class="cls-6" d="M78.83,15.76a5.6,5.6,0,0,1,3.32,4.18,16.6,16.6,0,0,1,.18,2.83l0,12.08H77.16V22.65a4,4,0,0,0-.35-1.79,2.51,2.51,0,0,0-2.46-1.34,2.89,2.89,0,0,0-2.87,1.72,5.41,5.41,0,0,0-.4,2.2V34.85H66V23.44A6.51,6.51,0,0,0,65.69,21a2.45,2.45,0,0,0-2.48-1.39A2.94,2.94,0,0,0,60.33,21a5.36,5.36,0,0,0-.4,2.36V34.85H54.85V15.73h4.87v2.79a8,8,0,0,1,1.76-2.13,6,6,0,0,1,3.78-1.12,5.94,5.94,0,0,1,3.55,1,5.6,5.6,0,0,1,1.65,2.3,6.46,6.46,0,0,1,2.44-2.48,7.43,7.43,0,0,1,3.45-.79A6.6,6.6,0,0,1,78.83,15.76Z"/><path class="cls-6" d="M92.05,34.85H87V8.94h5Z"/><path class="cls-6" d="M107.35,8.94h5.41V30.19H125.7v4.66H107.35Z"/><path class="cls-6" d="M141.42,16.08a7.77,7.77,0,0,1,3.31,2.83,9.6,9.6,0,0,1,1.53,4,25.62,25.62,0,0,1,.17,3.8h-14a4.61,4.61,0,0,0,2,4,5.09,5.09,0,0,0,2.76.72,4.21,4.21,0,0,0,2.78-.88,4.3,4.3,0,0,0,1-1.32h5.11a6.17,6.17,0,0,1-1.86,3.46,9.33,9.33,0,0,1-7.21,2.79,10.46,10.46,0,0,1-6.75-2.36q-2.93-2.35-2.92-7.67c0-3.32.88-5.86,2.64-7.64a9.24,9.24,0,0,1,6.85-2.66A11.43,11.43,0,0,1,141.42,16.08Zm-7.5,4.33a5.18,5.18,0,0,0-1.33,3h8.63a4.21,4.21,0,0,0-1.33-3,4.38,4.38,0,0,0-3-1A4,4,0,0,0,133.92,20.41Z"/><path class="cls-6" d="M146.77,38.53l.6,0h.32a1.59,1.59,0,0,0,1.12-.36,1.91,1.91,0,0,0,.38-1.4v-21h5V36.91a6.7,6.7,0,0,1-1.14,4.29c-.76.93-2.26,1.39-4.48,1.39l-.68,0-1.12,0v-4Zm7.42-25.12h-5V8.79h5Z"/><path class="cls-6" d="M164.11,13.41H159V8.79h5.08ZM159,15.69h5.08V34.85H159Z"/><path class="cls-6" d="M176.55,23.2a7.86,7.86,0,0,0,2-.44,1.5,1.5,0,0,0,1.08-1.42,1.69,1.69,0,0,0-.83-1.63,5.2,5.2,0,0,0-2.43-.45,3.19,3.19,0,0,0-2.55.88,3.59,3.59,0,0,0-.71,1.76h-4.83a7.39,7.39,0,0,1,1.41-4.13q2-2.54,6.85-2.53a12.2,12.2,0,0,1,5.61,1.25q2.44,1.25,2.45,4.71V30c0,.61,0,1.35,0,2.21a2.79,2.79,0,0,0,.3,1.34,1.76,1.76,0,0,0,.74.58v.74h-5.45a6,6,0,0,1-.32-1.09,11.19,11.19,0,0,1-.14-1.16,10.67,10.67,0,0,1-2.4,1.92,7.27,7.27,0,0,1-3.68.93A6.32,6.32,0,0,1,169.37,34a5.3,5.3,0,0,1-1.71-4.21,5.47,5.47,0,0,1,2.75-5.12,12.41,12.41,0,0,1,4.43-1.23Zm3.06,2.34a5.14,5.14,0,0,1-1,.48,8,8,0,0,1-1.34.34l-1.14.21a7.45,7.45,0,0,0-2.3.69,2.29,2.29,0,0,0-1.18,2.13,2.21,2.21,0,0,0,.72,1.85,2.75,2.75,0,0,0,1.76.57,5.25,5.25,0,0,0,3-.95,4,4,0,0,0,1.44-3.46V25.54Z"/><path class="cls-6" d="M197.07,34.85l6.54-9.7-6.26-9.42h6.13l3.2,5.55,3.13-5.55h6l-6.29,9.33L216,34.85h-6.24l-3.3-5.76-3.33,5.76Z"/><path class="cls-6" d="M229.16,17.27V13.86a21.89,21.89,0,0,0,3.31-.32,4.68,4.68,0,0,0,2.46-1.34,4.44,4.44,0,0,0,1-1.83,4.15,4.15,0,0,0,.19-1h4.18V34.84h-5.13V17.26h-6Z"/><path class="cls-6" d="M249.43,8.94h5.41V30.19h12.94v4.66H249.43Z"/><path class="cls-6" d="M269.05,19.44V15.87h2.67V10.53h5v5.34h3.11v3.57h-3.11V29.56A2.28,2.28,0,0,0,277,31c.2.2.81.29,1.83.29h.48c.17,0,.34,0,.5,0V35l-2.37.09c-2.37.08-4-.33-4.85-1.23a3.66,3.66,0,0,1-.84-2.65V19.44Z"/><path class="cls-6" d="M299.5,8.94h6.13l9.17,25.91h-5.87l-1.71-5.33h-9.54l-1.76,5.33h-5.66Zm-.36,16.12h6.64l-3.27-10.2Z"/><path class="cls-6" d="M327.16,15.67a6,6,0,0,1,2.95,2.78V15.69H335V33.87a10.19,10.19,0,0,1-1.25,5.59c-1.43,2.16-4.17,3.23-8.23,3.23a11.18,11.18,0,0,1-6-1.44A5.36,5.36,0,0,1,317,36.94h5.45a2.24,2.24,0,0,0,.69,1.27,4.21,4.21,0,0,0,2.72.69c1.8,0,3-.6,3.62-1.81a9.11,9.11,0,0,0,.6-3.9V32a6.14,6.14,0,0,1-1.55,1.85A6.23,6.23,0,0,1,324.61,35a7.35,7.35,0,0,1-5.9-2.59,10.49,10.49,0,0,1-2.21-7,11.88,11.88,0,0,1,2.12-7.18,7,7,0,0,1,6-2.91A6.46,6.46,0,0,1,327.16,15.67Zm1.71,13.74a6.13,6.13,0,0,0,1.21-4.23A6.45,6.45,0,0,0,328.93,21a3.73,3.73,0,0,0-3.07-1.42,3.62,3.62,0,0,0-3.62,2.48,8.81,8.81,0,0,0-.53,3.25,7.53,7.53,0,0,0,.56,3,3.65,3.65,0,0,0,3.64,2.43A3.84,3.84,0,0,0,328.87,29.41Z"/><path class="cls-6" d="M344.67,15.69V27.24a6.19,6.19,0,0,0,.38,2.46,2.68,2.68,0,0,0,2.68,1.46,3.5,3.5,0,0,0,3.5-2.07,7.48,7.48,0,0,0,.49-3V15.7h5.08V34.86h-4.87V32.15c-.05.06-.16.23-.35.53a3.32,3.32,0,0,1-.67.77,7,7,0,0,1-2.27,1.44,7.67,7.67,0,0,1-2.57.39q-4.24,0-5.71-3.06a11.69,11.69,0,0,1-.82-5V15.7h5.13Z"/><path class="cls-6" d="M369.26,23.2a7.86,7.86,0,0,0,2-.44,1.5,1.5,0,0,0,1.08-1.42,1.69,1.69,0,0,0-.83-1.63,5.2,5.2,0,0,0-2.43-.45,3.19,3.19,0,0,0-2.55.88,3.59,3.59,0,0,0-.71,1.76H361a7.39,7.39,0,0,1,1.41-4.13q2-2.54,6.85-2.53a12.2,12.2,0,0,1,5.61,1.25q2.44,1.25,2.45,4.71V30c0,.61,0,1.35,0,2.21a2.79,2.79,0,0,0,.3,1.34,1.76,1.76,0,0,0,.74.58v.74h-5.45a6,6,0,0,1-.32-1.09,11.19,11.19,0,0,1-.14-1.16,10.67,10.67,0,0,1-2.4,1.92,7.27,7.27,0,0,1-3.68.93A6.32,6.32,0,0,1,362.08,34a5.3,5.3,0,0,1-1.71-4.21,5.47,5.47,0,0,1,2.75-5.12,12.41,12.41,0,0,1,4.43-1.23Zm3.06,2.34a5.14,5.14,0,0,1-1,.48,8,8,0,0,1-1.34.34l-1.14.21a7.45,7.45,0,0,0-2.3.69,2.29,2.29,0,0,0-1.18,2.13,2.21,2.21,0,0,0,.72,1.85,2.75,2.75,0,0,0,1.76.57,5.25,5.25,0,0,0,3-.95,4,4,0,0,0,1.44-3.46V25.54Z"/><path class="cls-6" d="M18.42,70.23a5.7,5.7,0,0,0,.49,2.53,3.36,3.36,0,0,0,3.31,1.85,3.69,3.69,0,0,0,2.57-1,3.75,3.75,0,0,0,1.1-2.91,3.29,3.29,0,0,0-2-3.36,10.22,10.22,0,0,0-3.64-.47V63.27a9.45,9.45,0,0,0,3.4-.47,2.93,2.93,0,0,0,1.66-3,3.33,3.33,0,0,0-.85-2.37A3.1,3.1,0,0,0,22,56.53a3,3,0,0,0-2.6,1.12,4.77,4.77,0,0,0-.8,3H14a12.47,12.47,0,0,1,.65-3.6,8,8,0,0,1,1.93-2.76,6.77,6.77,0,0,1,2.33-1.37,10,10,0,0,1,3.32-.47,8.83,8.83,0,0,1,5.89,1.89,6.3,6.3,0,0,1,2.24,5.07A5.62,5.62,0,0,1,29,63.22a4.65,4.65,0,0,1-1.76,1.32,3.6,3.6,0,0,1,2,1.18,6.28,6.28,0,0,1,1.92,4.85,8.2,8.2,0,0,1-2.24,5.69q-2.24,2.44-6.63,2.45c-3.61,0-6.11-1.18-7.52-3.53a10.41,10.41,0,0,1-1.23-4.92h4.93Z"/><path class="cls-6" d="M49.31,55.82c1.31,2.29,2,5.53,2,9.74s-.65,7.45-2,9.72-3.58,3.41-6.83,3.41S37,77.55,35.65,75.28s-2-5.51-2-9.72.65-7.45,2-9.74,3.58-3.43,6.83-3.43S48,53.53,49.31,55.82ZM39.53,72.28a3,3,0,0,0,5.88,0,24.58,24.58,0,0,0,.69-6.72,24.76,24.76,0,0,0-.69-6.82,2.83,2.83,0,0,0-2.93-2.21,2.88,2.88,0,0,0-2.95,2.21,23.73,23.73,0,0,0-.72,6.82A24,24,0,0,0,39.53,72.28Z"/><path class="cls-6" d="M82.52,52.14h7.79V78.05h-5V60.52c0-.5,0-1.21,0-2.12s0-1.61,0-2.1L80.4,78H75.14L70.26,56.3c0,.49,0,1.19,0,2.1s0,1.61,0,2.12V78.05h-5V52.14h7.88l4.72,20.37Z"/><path class="cls-6" d="M100.07,56.61H95V52h5.08ZM95,58.89h5.08V78.05H95Z"/><path class="cls-6" d="M120.37,60q1.88,1.56,1.88,5.16v12.9h-5.13V66.4a5.31,5.31,0,0,0-.4-2.32,2.83,2.83,0,0,0-2.79-1.48,3.46,3.46,0,0,0-3.47,2.16,7.38,7.38,0,0,0-.49,2.92V78.05h-5V58.93h4.85v2.79a8.72,8.72,0,0,1,1.82-2.13,6.34,6.34,0,0,1,3.9-1.16A7.38,7.38,0,0,1,120.37,60Z"/></g></g></svg>